<?xml version="1.0" encoding="UTF-8" standalone="no"?>
<!-- Created with Inkscape (http://www.inkscape.org/) -->

<svg
   xmlns:dc="http://purl.org/dc/elements/1.1/"
   xmlns:cc="http://creativecommons.org/ns#"
   xmlns:rdf="http://www.w3.org/1999/02/22-rdf-syntax-ns#"
   xmlns:svg="http://www.w3.org/2000/svg"
   xmlns="http://www.w3.org/2000/svg"
   xmlns:sodipodi="http://sodipodi.sourceforge.net/DTD/sodipodi-0.dtd"
   xmlns:inkscape="http://www.inkscape.org/namespaces/inkscape"
   width="52.453499mm"
   height="32.092564mm"
   viewBox="0 0 52.453499 32.092564"
   version="1.1"
   id="svg7841"
   inkscape:version="0.92.5 (2060ec1f9f, 2020-04-08)"
   sodipodi:docname="logo obsluga wynajmu.svg">
  <defs
     id="defs7835" />
  <sodipodi:namedview
     id="base"
     pagecolor="#ffffff"
     bordercolor="#666666"
     borderopacity="1.0"
     inkscape:pageopacity="0.0"
     inkscape:pageshadow="2"
     inkscape:zoom="1.071875"
     inkscape:cx="230.43668"
     inkscape:cy="32.892261"
     inkscape:document-units="mm"
     inkscape:current-layer="layer1"
     showgrid="false"
     inkscape:window-width="1366"
     inkscape:window-height="664"
     inkscape:window-x="-8"
     inkscape:window-y="-8"
     inkscape:window-maximized="1" />
  <metadata
     id="metadata7838">
    <rdf:RDF>
      <cc:Work
         rdf:about="">
        <dc:format>image/svg+xml</dc:format>
        <dc:type
           rdf:resource="http://purl.org/dc/dcmitype/StillImage" />
        <dc:title />
      </cc:Work>
    </rdf:RDF>
  </metadata>
  <g
     inkscape:label="Layer 1"
     inkscape:groupmode="layer"
     id="layer1"
     transform="translate(-44.863629,-76.075195)">
    <g
       aria-label="B"
       transform="matrix(0.29925145,0,0,0.29925145,34.705366,71.322983)"
       style="font-style:normal;font-variant:normal;font-weight:600;font-stretch:normal;font-size:40px;line-height:1.25;font-family:Saira;-inkscape-font-specification:'Saira Semi-Bold';letter-spacing:0px;word-spacing:0px;fill:#000000;fill-opacity:1;stroke:none;stroke-width:0.15780838"
       id="flowRoot35-6-0-5-2-0-1-8">
      <path
         d="m 136.85352,39.297551 q 0,-5.3125 -5.5,-7.375 -2.875,-1.0625 -6.75,-1.0625 h -19.4375 v 1.6875 h 5 v 34.125 h -5 v 1.6875 h 20.25 q 8.375,0 12.125,-5.0625 1.9375,-2.625 1.9375,-5.8125 0,-6.25 -6.3125,-8.5625 -1.6875,-0.625 -3.6875,-0.9375 5.25,-1.75 6.875,-6 0.5,-1.375 0.5,-2.6875 z m -15.125,-6.75 q 7.0625,0.125 7.125,7.25 0,5.125 -3.6875,6.75 -1.375,0.625 -3.125,0.625 h -4.1875 v -14.625 z m 1.75,16.375 q 5.25,0 7,4.6875 0.625,1.625 0.625,3.625 0,6.4375 -4.25,8.625 -1.6875,0.8125 -3.875,0.8125 h -5.125 v -17.75 z"
         style="font-style:normal;font-variant:normal;font-weight:bold;font-stretch:normal;font-size:64px;font-family:'Abhaya Libre';-inkscape-font-specification:'Abhaya Libre Bold'"
         id="path1090-9-6-6-9-0-6-8"
         inkscape:connector-curvature="0" />
    </g>
    <path
       style="font-style:normal;font-variant:normal;font-weight:600;font-stretch:normal;font-size:6.31233549px;line-height:1.25;font-family:Saira;-inkscape-font-specification:'Saira Semi-Bold';letter-spacing:0px;word-spacing:0px;fill:none;fill-opacity:1;stroke:#000000;stroke-width:0.45241165;stroke-miterlimit:15.30000019;stroke-dasharray:none;stroke-opacity:1"
       d="M 61.51716,76.301401 H 80.737369 V 95.624902 H 61.51716 Z"
       id="rect43-2-7-0-0-6-8-9"
       inkscape:connector-curvature="0" />
    <g
       aria-label="OBSŁUGA-WYNAJMU.pl"
       transform="matrix(0.22327285,0,0,0.23312446,41.337677,58.811288)"
       style="font-style:normal;font-variant:normal;font-weight:600;font-stretch:normal;font-size:40px;line-height:1.25;font-family:Saira;-inkscape-font-specification:'Saira Semi-Bold';letter-spacing:0px;word-spacing:0px;writing-mode:lr-tb;direction:ltr;fill:#000000;fill-opacity:1;stroke:none;stroke-width:0.15780801"
       id="flowRoot4890-3-6-2-2-0-3-3-4-7">
      <path
         d="m 22.24586,181.61203 q -3.093328,0 -4.415993,-0.64 -1.301331,-0.66133 -1.642664,-2.09066 -0.319999,-1.42933 -0.319999,-4.77866 0,-3.34933 0.319999,-4.77866 0.341333,-1.42933 1.642664,-2.06933 1.322665,-0.66133 4.415993,-0.66133 3.093329,0 4.39466,0.66133 1.322665,0.64 1.642664,2.06933 0.32,1.42933 0.32,4.77866 0,3.34933 -0.32,4.77866 -0.319999,1.42933 -1.642664,2.09066 -1.301331,0.64 -4.39466,0.64 z m 0,-3.00799 q 1.386665,0 1.855997,-0.21334 0.469333,-0.23466 0.597333,-1.04533 0.128,-0.81066 0.128,-3.24266 0,-2.43199 -0.128,-3.24266 -0.128,-0.81067 -0.597333,-1.024 -0.469332,-0.23466 -1.855997,-0.23466 -1.386664,0 -1.87733,0.23466 -0.490666,0.21333 -0.618666,1.04533 -0.127999,0.832 -0.127999,3.22133 0,2.38933 0.127999,3.22133 0.128,0.832 0.618666,1.06666 0.490666,0.21334 1.87733,0.21334 z"
         style="font-style:normal;font-variant:normal;font-weight:bold;font-stretch:normal;font-size:21.33329964px;font-family:Saira;-inkscape-font-specification:'Saira Bold';text-align:center;writing-mode:lr-tb;direction:ltr;text-anchor:middle"
         id="path1399" />
      <path
         d="m 31.334512,166.76406 h 7.381322 q 2.154663,0 3.221328,0.91733 1.066665,0.91733 1.066665,2.77333 0,1.55733 -0.618665,2.36799 -0.597333,0.78934 -1.941331,1.088 v 0.0853 q 1.450665,0.32 2.06933,1.088 0.618666,0.768 0.618666,2.45333 0,1.94133 -1.045332,2.92266 -1.023998,0.98134 -3.391994,0.98134 h -7.359989 z m 6.037324,5.84532 q 0.789332,0 1.173332,-0.10667 0.383999,-0.128 0.533332,-0.42666 0.149333,-0.29867 0.149333,-0.896 0,-0.61867 -0.149333,-0.91733 -0.128,-0.29867 -0.511999,-0.40534 -0.362666,-0.10666 -1.194665,-0.10666 h -2.346663 v 2.85866 z m 0.106667,5.84532 q 0.810665,0 1.194664,-0.10666 0.384,-0.128 0.533333,-0.42667 0.149333,-0.29866 0.149333,-0.93866 0,-0.66134 -0.149333,-0.98133 -0.128,-0.32 -0.533333,-0.42667 -0.383999,-0.128 -1.194664,-0.128 h -2.45333 v 3.00799 z"
         style="font-style:normal;font-variant:normal;font-weight:bold;font-stretch:normal;font-size:21.33329964px;font-family:Saira;-inkscape-font-specification:'Saira Bold';text-align:center;writing-mode:lr-tb;direction:ltr;text-anchor:middle"
         id="path1401" />
      <path
         d="m 51.168813,181.61203 q -3.114662,0 -5.525325,-0.36266 v -2.90133 q 2.602663,0.256 4.39466,0.256 1.045332,0 1.599998,-0.0853 0.554665,-0.0853 0.789332,-0.27733 0.213333,-0.17066 0.255999,-0.40533 0.064,-0.256 0.064,-0.704 0,-0.53333 -0.08533,-0.768 -0.08533,-0.23467 -0.341333,-0.32 -0.255999,-0.10666 -0.895998,-0.192 l -2.709329,-0.34133 q -1.450665,-0.17067 -2.218664,-0.72533 -0.746665,-0.576 -1.023998,-1.472 -0.256,-0.896 -0.256,-2.24 0,-1.89866 0.703999,-2.87999 0.703999,-0.98133 1.877331,-1.28 1.194664,-0.32 3.029328,-0.32 1.343998,0 2.45333,0.10667 1.130665,0.10666 2.453329,0.34133 v 2.83733 q -2.538662,-0.27733 -4.159993,-0.27733 -1.706664,0 -2.218663,0.25599 -0.277333,0.128 -0.362667,0.36267 -0.064,0.23467 -0.064,0.66133 0,0.53334 0.064,0.768 0.08533,0.21334 0.32,0.32 0.256,0.0853 0.874665,0.17067 l 3.114662,0.384 q 0.938665,0.10666 1.535998,0.384 0.618665,0.27733 1.023998,0.93866 0.618666,0.91733 0.618666,2.92266 0,2.09067 -0.661333,3.15733 -0.661332,1.04533 -1.770663,1.36533 -1.109332,0.32 -2.879996,0.32 z"
         style="font-style:normal;font-variant:normal;font-weight:bold;font-stretch:normal;font-size:21.33329964px;font-family:Saira;-inkscape-font-specification:'Saira Bold';text-align:center;writing-mode:lr-tb;direction:ltr;text-anchor:middle"
         id="path1403" />
      <path
         d="m 62.713129,178.28404 h 5.82399 v 3.15733 h -9.535984 v -5.58933 l -1.237332,0.46933 v -2.53866 l 1.237332,-0.46933 v -6.54932 h 3.711994 v 5.16265 l 3.135995,-1.17333 v 2.53867 l -3.135995,1.17333 z"
         style="font-style:normal;font-variant:normal;font-weight:bold;font-stretch:normal;font-size:21.33329964px;font-family:Saira;-inkscape-font-specification:'Saira Bold';text-align:center;writing-mode:lr-tb;direction:ltr;text-anchor:middle"
         id="path1405" />
      <path
         d="m 82.024097,166.76406 v 8.04265 q 0,2.944 -0.362666,4.30933 -0.341333,1.34399 -1.557331,1.91999 -1.215998,0.576 -3.967994,0.576 -2.751995,0 -3.967993,-0.576 -1.215998,-0.576 -1.578665,-1.91999 -0.341332,-1.36533 -0.341332,-4.30933 v -8.04265 h 3.711994 v 8.83198 q 0,1.51467 0.106666,2.09067 0.106667,0.57599 0.533333,0.76799 0.426666,0.192 1.535997,0.192 1.109332,0 1.535998,-0.192 0.426666,-0.192 0.533332,-0.76799 0.106667,-0.576 0.106667,-2.09067 v -8.83198 z"
         style="font-style:normal;font-variant:normal;font-weight:bold;font-stretch:normal;font-size:21.33329964px;font-family:Saira;-inkscape-font-specification:'Saira Bold';text-align:center;writing-mode:lr-tb;direction:ltr;text-anchor:middle"
         id="path1407" />
      <path
         d="m 90.845418,175.68138 v -2.816 h 5.482658 v 8.25599 q -1.109332,0.21333 -2.559996,0.34133 -1.429331,0.14933 -2.517329,0.14933 -2.837329,0 -4.20266,-0.576 -1.365331,-0.59733 -1.877331,-2.13333 -0.511999,-1.55733 -0.511999,-4.79999 0,-3.02933 0.511999,-4.58666 0.533333,-1.57866 1.919997,-2.23999 1.386665,-0.68267 4.13866,-0.68267 1.578665,0 3.135995,0.192 1.557331,0.192 1.898664,0.29867 v 2.81599 q -2.389329,-0.29866 -3.669327,-0.29866 -2.111997,0 -2.901329,0.23466 -0.767999,0.21333 -1.023999,1.088 -0.255999,0.87467 -0.255999,3.17866 0,2.09066 0.192,3.008 0.191999,0.896 0.789332,1.23733 0.618665,0.34133 2.00533,0.34133 0.767999,0 1.471997,-0.064 v -2.94399 z"
         style="font-style:normal;font-variant:normal;font-weight:bold;font-stretch:normal;font-size:21.33329964px;font-family:Saira;-inkscape-font-specification:'Saira Bold';text-align:center;writing-mode:lr-tb;direction:ltr;text-anchor:middle"
         id="path1409" />
      <path
         d="m 108.59305,181.44137 -0.87466,-2.77333 h -5.22666 l -0.832,2.77333 h -3.711993 l 4.693323,-14.67731 h 5.03466 l 4.69333,14.67731 z m -3.45599,-11.39199 h -0.10667 l -1.68533,5.61066 h 3.49866 z"
         style="font-style:normal;font-variant:normal;font-weight:bold;font-stretch:normal;font-size:21.33329964px;font-family:Saira;-inkscape-font-specification:'Saira Bold';text-align:center;writing-mode:lr-tb;direction:ltr;text-anchor:middle"
         id="path1411" />
      <path
         d="m 113.59371,176.79071 v -2.83733 h 5.80266 v 2.83733 z"
         style="font-style:normal;font-variant:normal;font-weight:bold;font-stretch:normal;font-size:21.33329964px;font-family:Saira;-inkscape-font-specification:'Saira Bold';text-align:center;writing-mode:lr-tb;direction:ltr;text-anchor:middle"
         id="path1413" />
      <path
         d="m 133.35035,181.44137 -2.19733,-8.81066 h -0.128 l -2.19733,8.81066 h -4.69332 l -3.37067,-14.67731 h 3.712 l 2.19733,10.28265 h 0.10666 l 2.45333,-10.28265 h 3.79733 l 2.496,10.28265 h 0.128 l 2.04799,-10.28265 h 3.69066 l -3.37066,14.67731 z"
         style="font-style:normal;font-variant:normal;font-weight:bold;font-stretch:normal;font-size:21.33329964px;font-family:Saira;-inkscape-font-specification:'Saira Bold';text-align:center;writing-mode:lr-tb;direction:ltr;text-anchor:middle"
         id="path1415" />
      <path
         d="m 146.10033,181.44137 v -4.992 l -4.88532,-9.68531 h 3.83999 l 2.88,6.05865 h 0.14933 l 2.85866,-6.05865 h 3.75466 l -4.88532,9.68531 v 4.992 z"
         style="font-style:normal;font-variant:normal;font-weight:bold;font-stretch:normal;font-size:21.33329964px;font-family:Saira;-inkscape-font-specification:'Saira Bold';text-align:center;writing-mode:lr-tb;direction:ltr;text-anchor:middle"
         id="path1417" />
      <path
         d="m 164.9753,181.44137 -5.07733,-8.38399 h -0.10666 v 8.38399 h -3.54133 v -14.67731 h 3.81866 l 4.71466,7.61598 h 0.10667 v -7.61598 h 3.56266 v 14.67731 z"
         style="font-style:normal;font-variant:normal;font-weight:bold;font-stretch:normal;font-size:21.33329964px;font-family:Saira;-inkscape-font-specification:'Saira Bold';text-align:center;writing-mode:lr-tb;direction:ltr;text-anchor:middle"
         id="path1419" />
      <path
         d="m 180.80128,181.44137 -0.87466,-2.77333 h -5.22666 l -0.832,2.77333 h -3.71199 l 4.69332,-14.67731 h 5.03466 l 4.69333,14.67731 z m -3.45599,-11.39199 h -0.10667 l -1.68533,5.61066 h 3.49866 z"
         style="font-style:normal;font-variant:normal;font-weight:bold;font-stretch:normal;font-size:21.33329964px;font-family:Saira;-inkscape-font-specification:'Saira Bold';text-align:center;writing-mode:lr-tb;direction:ltr;text-anchor:middle"
         id="path1421" />
      <path
         d="m 185.22594,178.66804 q 1.57866,-0.0213 2.13333,-0.17067 0.55466,-0.14933 0.68266,-0.66133 0.14933,-0.53333 0.14933,-2.048 v -9.02398 h 3.712 v 8.04265 q 0,3.47733 -0.36267,4.71466 -0.34133,1.23733 -1.57866,1.57866 -1.23733,0.34134 -4.73599,0.34134 z"
         style="font-style:normal;font-variant:normal;font-weight:bold;font-stretch:normal;font-size:21.33329964px;font-family:Saira;-inkscape-font-specification:'Saira Bold';text-align:center;writing-mode:lr-tb;direction:ltr;text-anchor:middle"
         id="path1423" />
      <path
         d="m 207.4189,181.44137 v -9.34399 h -0.14933 l -3.136,9.34399 h -2.51733 l -3.13599,-9.34399 h -0.14934 v 9.34399 h -3.45599 v -14.67731 h 5.09866 l 2.90133,8.46932 h 0.14933 l 2.87999,-8.46932 h 5.07733 v 14.67731 z"
         style="font-style:normal;font-variant:normal;font-weight:bold;font-stretch:normal;font-size:21.33329964px;font-family:Saira;-inkscape-font-specification:'Saira Bold';text-align:center;writing-mode:lr-tb;direction:ltr;text-anchor:middle"
         id="path1425" />
      <path
         d="m 225.69054,166.76406 v 8.04265 q 0,2.944 -0.36267,4.30933 -0.34133,1.34399 -1.55733,1.91999 -1.216,0.576 -3.96799,0.576 -2.752,0 -3.968,-0.576 -1.216,-0.576 -1.57866,-1.91999 -0.34134,-1.36533 -0.34134,-4.30933 v -8.04265 h 3.712 v 8.83198 q 0,1.51467 0.10667,2.09067 0.10666,0.57599 0.53333,0.76799 0.42666,0.192 1.536,0.192 1.10933,0 1.53599,-0.192 0.42667,-0.192 0.53334,-0.76799 0.10666,-0.576 0.10666,-2.09067 v -8.83198 z"
         style="font-style:normal;font-variant:normal;font-weight:bold;font-stretch:normal;font-size:21.33329964px;font-family:Saira;-inkscape-font-specification:'Saira Bold';text-align:center;writing-mode:lr-tb;direction:ltr;text-anchor:middle"
         id="path1427" />
      <path
         d="m 228.5172,181.44137 v -3.15733 h 3.64799 v 3.15733 z"
         style="font-style:normal;font-variant:normal;font-weight:bold;font-stretch:normal;font-size:21.33329964px;font-family:Saira;-inkscape-font-specification:'Saira Bold';text-align:center;writing-mode:lr-tb;direction:ltr;text-anchor:middle"
         id="path1429" />
      <path
         d="m 234.8282,170.56138 h 3.26399 l 0.0853,1.30134 h 0.192 q 0.448,-0.832 1.23734,-1.152 0.78933,-0.32 1.83466,-0.32 1.32266,0 2.06933,0.49066 0.768,0.49067 1.13066,1.70667 0.36267,1.19466 0.36267,3.37066 0,2.19733 -0.36267,3.41333 -0.34133,1.21599 -1.10933,1.72799 -0.74666,0.49067 -2.06933,0.49067 -1.088,0 -1.83466,-0.256 -0.72533,-0.27733 -1.19467,-1.04533 h -0.17066 v 5.39732 h -3.43466 z m 5.07732,8.12799 q 0.832,0 1.152,-0.14933 0.32,-0.14934 0.40533,-0.66133 0.10667,-0.53334 0.10667,-1.87733 0,-1.344 -0.10667,-1.856 -0.0853,-0.53333 -0.40533,-0.68267 -0.32,-0.17066 -1.152,-0.17066 -0.64,0 -0.96,0.14933 -0.32,0.14933 -0.46933,0.53333 -0.128,0.29867 -0.17067,0.768 -0.0427,0.46933 -0.0427,1.25867 0,0.81066 0.0213,1.27999 0.0427,0.448 0.17067,0.704 0.14933,0.40533 0.46933,0.55467 0.32,0.14933 0.98133,0.14933 z"
         style="font-style:normal;font-variant:normal;font-weight:bold;font-stretch:normal;font-size:21.33329964px;font-family:Saira;-inkscape-font-specification:'Saira Bold';text-align:center;writing-mode:lr-tb;direction:ltr;text-anchor:middle"
         id="path1431" />
      <path
         d="m 247.24484,181.44137 v -15.85065 h 3.47733 v 15.85065 z"
         style="font-style:normal;font-variant:normal;font-weight:bold;font-stretch:normal;font-size:21.33329964px;font-family:Saira;-inkscape-font-specification:'Saira Bold';text-align:center;writing-mode:lr-tb;direction:ltr;text-anchor:middle"
         id="path1433" />
    </g>
    <g
       aria-label="| zarządzanie NAJMEM i PODNAJEM |"
       transform="matrix(0.22327285,0,0,0.23312446,34.923647,61.816002)"
       style="font-style:normal;font-variant:normal;font-weight:600;font-stretch:normal;font-size:40px;line-height:1.25;font-family:Saira;-inkscape-font-specification:'Saira Semi-Bold';letter-spacing:0px;word-spacing:0px;writing-mode:lr-tb;direction:ltr;opacity:1;fill:#000000;fill-opacity:1;stroke:none;stroke-width:0.15780801"
       id="flowRoot4890-3-1-3-6-2-4-4-0">
      <path
         d="m 70.605475,183.18403 v -9.7849 h 0.800976 v 9.7849 z"
         style="font-weight:normal;font-size:10.82400036px;text-align:center;writing-mode:lr-tb;direction:ltr;text-anchor:middle"
         id="path1342" />
      <path
         d="m 75.603119,181.44137 v -0.74686 l 3.214728,-3.97241 h -3.08484 v -0.80097 h 4.22136 v 0.74685 l -3.203904,3.97241 h 3.225552 v 0.80098 z"
         style="font-weight:normal;font-size:10.82400036px;text-align:center;writing-mode:lr-tb;direction:ltr;text-anchor:middle"
         id="path1344" />
      <path
         d="m 82.950585,181.52796 q -0.952512,0 -1.385472,-0.34637 -0.43296,-0.35719 -0.43296,-1.25558 0,-0.63862 0.151536,-0.99581 0.151536,-0.35719 0.508728,-0.51955 0.368016,-0.16236 1.02828,-0.16236 0.313896,0 2.067384,0.0541 v -0.32472 q 0,-0.64944 -0.129888,-0.92004 -0.119064,-0.2706 -0.454608,-0.34637 -0.32472,-0.0758 -1.114872,-0.0758 -0.346368,0 -0.876744,0.0433 -0.519552,0.0325 -0.8118,0.0758 v -0.7685 q 0.855096,-0.15154 2.00244,-0.15154 0.97416,0 1.450416,0.20566 0.48708,0.19483 0.64944,0.64944 0.16236,0.44378 0.16236,1.29888 v 3.45286 h -0.790152 l -0.0433,-0.76851 h -0.06494 q -0.227304,0.51955 -0.736032,0.69274 -0.497904,0.16236 -1.179816,0.16236 z m 0.335544,-0.79015 q 0.5412,0 0.876744,-0.0974 0.346368,-0.0974 0.497904,-0.37884 0.227304,-0.38966 0.227304,-1.0824 v -0.24895 h -1.84008 q -0.454608,0 -0.671088,0.0649 -0.205656,0.065 -0.292248,0.25978 -0.08659,0.18401 -0.08659,0.58449 0,0.38967 0.09742,0.57368 0.09742,0.184 0.357192,0.25977 0.2706,0.065 0.833448,0.065 z"
         style="font-weight:normal;font-size:10.82400036px;text-align:center;writing-mode:lr-tb;direction:ltr;text-anchor:middle"
         id="path1346" />
      <path
         d="m 87.651584,175.92113 h 0.779328 l 0.0433,1.04992 h 0.06494 q 0.194832,-0.64944 0.64944,-0.88756 0.454608,-0.24896 1.19064,-0.24896 v 0.94169 q -0.746856,0 -1.147344,0.22731 -0.400488,0.2273 -0.552024,0.70356 -0.151536,0.46543 -0.151536,1.2664 v 2.46788 h -0.876744 z"
         style="font-weight:normal;font-size:10.82400036px;text-align:center;writing-mode:lr-tb;direction:ltr;text-anchor:middle"
         id="path1348" />
      <path
         d="m 91.247182,181.44137 v -0.74686 l 3.214728,-3.97241 h -3.08484 v -0.80097 h 4.22136 v 0.74685 l -3.203904,3.97241 h 3.225552 v 0.80098 z"
         style="font-weight:normal;font-size:10.82400036px;text-align:center;writing-mode:lr-tb;direction:ltr;text-anchor:middle"
         id="path1350" />
      <path
         d="m 101.43054,182.93508 v 0.60614 q -0.36802,0.0216 -0.42214,0.0216 -0.55202,0 -0.79015,-0.2273 -0.238129,-0.21648 -0.238129,-0.5845 0,-0.32472 0.173179,-0.67109 0.18401,-0.33554 0.47626,-0.63861 h -0.0108 l -0.0433,-0.76851 h -0.0649 q -0.22731,0.51955 -0.736035,0.69274 -0.497904,0.16236 -1.179816,0.16236 -0.952512,0 -1.385472,-0.34637 -0.43296,-0.35719 -0.43296,-1.25558 0,-0.63862 0.151536,-0.99581 0.151536,-0.35719 0.508728,-0.51955 0.368016,-0.16236 1.02828,-0.16236 0.313896,0 2.067379,0.0541 v -0.32472 q 0,-0.64944 -0.12988,-0.92004 -0.11907,-0.2706 -0.454611,-0.34637 -0.32472,-0.0758 -1.114872,-0.0758 -0.346368,0 -0.876744,0.0433 -0.519552,0.0325 -0.8118,0.0758 v -0.7685 q 0.855096,-0.15154 2.00244,-0.15154 0.974157,0 1.450417,0.20566 0.48708,0.19483 0.64944,0.64944 0.16236,0.44378 0.16236,1.29888 v 3.45286 q -0.24895,0.17318 -0.46543,0.48708 -0.20566,0.32472 -0.20566,0.60614 0,0.41131 0.4979,0.41131 z m -0.8984,-4.00488 h -1.840075 q -0.454608,0 -0.671088,0.0649 -0.205656,0.065 -0.292248,0.25978 -0.08659,0.18401 -0.08659,0.58449 0,0.38967 0.09742,0.57368 0.09742,0.184 0.357192,0.25977 0.2706,0.065 0.833448,0.065 0.5412,0 0.876744,-0.0974 0.346363,-0.0974 0.497903,-0.37884 0.2273,-0.38966 0.2273,-1.0824 z"
         style="font-weight:normal;font-size:10.82400036px;text-align:center;writing-mode:lr-tb;direction:ltr;text-anchor:middle"
         id="path1352" />
      <path
         d="m 105.10325,181.52796 q -0.82262,0 -1.25558,-0.24895 -0.43296,-0.24896 -0.61697,-0.84428 -0.17318,-0.60614 -0.17318,-1.74266 0,-1.14734 0.17318,-1.75349 0.17319,-0.60614 0.59532,-0.85509 0.43296,-0.24896 1.24476,-0.24896 0.71439,0 1.14735,0.17319 0.44378,0.17318 0.64944,0.60614 h 0.0649 v -3.21473 h 0.87674 v 8.04224 h -0.79015 l -0.0325,-0.76851 h -0.0649 q -0.22731,0.49791 -0.69274,0.68191 -0.46543,0.17319 -1.1257,0.17319 z m 0.33555,-0.84427 q 0.56285,0 0.88757,-0.14072 0.32472,-0.15153 0.44378,-0.46543 0.10824,-0.24895 0.12989,-0.56285 0.0325,-0.32472 0.0325,-0.88756 0,-0.46544 -0.0325,-0.76851 -0.0325,-0.30307 -0.11907,-0.51955 -0.12988,-0.33554 -0.46543,-0.48708 -0.32472,-0.16236 -0.89839,-0.16236 -0.68191,0 -0.98498,0.14071 -0.29225,0.12989 -0.40049,0.53038 -0.0974,0.40049 -0.0974,1.32053 0,0.94168 0.0974,1.34217 0.10824,0.40049 0.40049,0.53038 0.30307,0.12989 1.00663,0.12989 z"
         style="font-weight:normal;font-size:10.82400036px;text-align:center;writing-mode:lr-tb;direction:ltr;text-anchor:middle"
         id="path1354" />
      <path
         d="m 109.32242,181.44137 v -0.74686 l 3.21472,-3.97241 h -3.08484 v -0.80097 h 4.22136 v 0.74685 l -3.2039,3.97241 h 3.22555 v 0.80098 z"
         style="font-weight:normal;font-size:10.82400036px;text-align:center;writing-mode:lr-tb;direction:ltr;text-anchor:middle"
         id="path1356" />
      <path
         d="m 116.66988,181.52796 q -0.95251,0 -1.38547,-0.34637 -0.43296,-0.35719 -0.43296,-1.25558 0,-0.63862 0.15154,-0.99581 0.15153,-0.35719 0.50872,-0.51955 0.36802,-0.16236 1.02828,-0.16236 0.3139,0 2.06739,0.0541 v -0.32472 q 0,-0.64944 -0.12989,-0.92004 -0.11906,-0.2706 -0.45461,-0.34637 -0.32472,-0.0758 -1.11487,-0.0758 -0.34637,0 -0.87674,0.0433 -0.51956,0.0325 -0.8118,0.0758 v -0.7685 q 0.85509,-0.15154 2.00244,-0.15154 0.97416,0 1.45041,0.20566 0.48708,0.19483 0.64944,0.64944 0.16236,0.44378 0.16236,1.29888 v 3.45286 h -0.79015 l -0.0433,-0.76851 h -0.0649 q -0.2273,0.51955 -0.73603,0.69274 -0.49791,0.16236 -1.17982,0.16236 z m 0.33555,-0.79015 q 0.5412,0 0.87674,-0.0974 0.34637,-0.0974 0.4979,-0.37884 0.22731,-0.38966 0.22731,-1.0824 v -0.24895 h -1.84008 q -0.45461,0 -0.67109,0.0649 -0.20566,0.065 -0.29225,0.25978 -0.0866,0.18401 -0.0866,0.58449 0,0.38967 0.0974,0.57368 0.0974,0.184 0.35719,0.25977 0.2706,0.065 0.83345,0.065 z"
         style="font-weight:normal;font-size:10.82400036px;text-align:center;writing-mode:lr-tb;direction:ltr;text-anchor:middle"
         id="path1358" />
      <path
         d="m 125.10516,178.33488 q 0,-0.76851 -0.0974,-1.09323 -0.0974,-0.33554 -0.36802,-0.44378 -0.2706,-0.10824 -0.90921,-0.10824 -0.68192,0 -1.00664,0.21648 -0.31389,0.21648 -0.40048,0.59532 -0.0758,0.37884 -0.0758,1.09322 v 2.84672 h -0.87675 v -5.52024 h 0.77933 l 0.0433,0.77932 h 0.0649 q 0.18401,-0.42213 0.60615,-0.63861 0.42213,-0.22731 1.22311,-0.22731 0.80097,0 1.20146,0.22731 0.41131,0.2273 0.55203,0.68191 0.14071,0.44378 0.14071,1.24476 v 3.45286 h -0.87675 z"
         style="font-weight:normal;font-size:10.82400036px;text-align:center;writing-mode:lr-tb;direction:ltr;text-anchor:middle"
         id="path1360" />
      <path
         d="m 127.82858,174.40577 v -1.00664 h 0.93086 v 1.00664 z m 0.0325,7.0356 v -5.52024 h 0.87675 v 5.52024 z"
         style="font-weight:normal;font-size:10.82400036px;text-align:center;writing-mode:lr-tb;direction:ltr;text-anchor:middle"
         id="path1362" />
      <path
         d="m 135.02553,178.99514 h -3.77758 q 0,0.79015 0.10824,1.1257 0.10824,0.33554 0.46543,0.47625 0.36802,0.12989 1.22312,0.12989 0.83344,0 1.76431,-0.11906 v 0.7685 q -0.34637,0.065 -0.89839,0.10824 -0.55203,0.0433 -1.04993,0.0433 -1.11487,0 -1.64525,-0.25978 -0.51955,-0.25977 -0.68191,-0.83345 -0.16236,-0.57367 -0.16236,-1.74266 0,-1.14734 0.14071,-1.72102 0.15154,-0.57367 0.66026,-0.85509 0.51956,-0.28143 1.63443,-0.28143 1.0391,0 1.50453,0.28143 0.46544,0.2706 0.5845,0.83345 0.12989,0.55202 0.12989,1.73184 z m -2.24057,-2.35963 q -0.70356,0 -1.01746,0.12989 -0.30307,0.11906 -0.41131,0.46543 -0.0974,0.33554 -0.10824,1.09322 h 2.93331 v -0.0866 q 0,-0.71438 -0.12989,-1.04993 -0.11907,-0.33554 -0.40049,-0.44378 -0.28142,-0.10824 -0.86592,-0.10824 z"
         style="font-weight:normal;font-size:10.82400036px;text-align:center;writing-mode:lr-tb;direction:ltr;text-anchor:middle"
         id="path1364" />
      <path
         d="m 144.22508,181.44137 -3.92911,-5.69343 h -0.0433 v 5.69343 h -0.89839 v -7.44692 h 0.95251 l 3.875,5.56354 h 0.0433 v -5.56354 h 0.88757 v 7.44692 z"
         style="font-weight:normal;font-size:10.82400036px;text-align:center;writing-mode:lr-tb;direction:ltr;text-anchor:middle"
         id="path1366" />
      <path
         d="m 152.33682,181.44137 -0.7685,-1.9808 h -3.35544 l -0.7685,1.9808 h -0.94169 l 2.81424,-7.44692 h 1.16899 l 2.81424,7.44692 z m -2.42457,-6.44028 h -0.0541 l -1.36383,3.58274 h 2.78177 z"
         style="font-weight:normal;font-size:10.82400036px;text-align:center;writing-mode:lr-tb;direction:ltr;text-anchor:middle"
         id="path1368" />
      <path
         d="m 153.96685,180.61874 q 0.82263,-0.0216 1.10405,-0.11906 0.29225,-0.10824 0.36802,-0.45461 0.0758,-0.34637 0.0758,-1.353 v -4.69762 h 0.93086 v 4.3729 q 0,1.60195 -0.12989,2.17562 -0.12989,0.57368 -0.59532,0.73604 -0.45461,0.15153 -1.75349,0.16236 z"
         style="font-weight:normal;font-size:10.82400036px;text-align:center;writing-mode:lr-tb;direction:ltr;text-anchor:middle"
         id="path1370" />
      <path
         d="m 165.27218,181.44137 v -5.85579 h -0.0433 l -2.55446,5.85579 h -0.68191 l -2.54364,-5.85579 h -0.0433 v 5.85579 h -0.87674 v -7.44692 h 1.25558 l 2.54364,5.79084 h 0.0541 l 2.54364,-5.79084 h 1.25558 v 7.44692 z"
         style="font-weight:normal;font-size:10.82400036px;text-align:center;writing-mode:lr-tb;direction:ltr;text-anchor:middle"
         id="path1372" />
      <path
         d="m 168.33808,181.44137 v -7.44692 h 4.84915 v 0.86592 h -3.91829 v 2.39211 h 3.39874 v 0.86592 h -3.39874 v 2.45705 h 3.91829 v 0.86592 z"
         style="font-weight:normal;font-size:10.82400036px;text-align:center;writing-mode:lr-tb;direction:ltr;text-anchor:middle"
         id="path1374" />
      <path
         d="m 181.61388,181.44137 v -5.85579 h -0.0433 l -2.55447,5.85579 h -0.68191 l -2.54364,-5.85579 h -0.0433 v 5.85579 h -0.87675 v -7.44692 h 1.25559 l 2.54364,5.79084 h 0.0541 l 2.54364,-5.79084 h 1.25558 v 7.44692 z"
         style="font-weight:normal;font-size:10.82400036px;text-align:center;writing-mode:lr-tb;direction:ltr;text-anchor:middle"
         id="path1376" />
      <path
         d="m 187.04347,174.40577 v -1.00664 h 0.93086 v 1.00664 z m 0.0325,7.0356 v -5.52024 h 0.87675 v 5.52024 z"
         style="font-weight:normal;font-size:10.82400036px;text-align:center;writing-mode:lr-tb;direction:ltr;text-anchor:middle"
         id="path1378" />
      <path
         d="m 192.50181,173.99445 h 3.26885 q 0.89839,0 1.36382,0.29225 0.46543,0.29225 0.61697,0.79015 0.15154,0.49791 0.15154,1.28806 0,0.75768 -0.15154,1.26641 -0.15154,0.4979 -0.62779,0.80097 -0.46543,0.30308 -1.37465,0.30308 h -2.31634 v 2.706 h -0.93086 z m 2.9333,3.875 q 0.70356,0 1.02828,-0.14072 0.32472,-0.15153 0.42214,-0.4546 0.0974,-0.30308 0.0974,-0.90922 0,-0.60614 -0.0974,-0.90922 -0.0866,-0.30307 -0.41131,-0.44378 -0.3139,-0.15154 -1.01746,-0.15154 h -2.02409 v 3.00908 z"
         style="font-weight:normal;font-size:10.82400036px;text-align:center;writing-mode:lr-tb;direction:ltr;text-anchor:middle"
         id="path1380" />
      <path
         d="m 202.3662,181.52796 q -1.48289,0 -2.09986,-0.29225 -0.61696,-0.29225 -0.79015,-1.01746 -0.16236,-0.73603 -0.16236,-2.50034 0,-1.76431 0.16236,-2.48952 0.17319,-0.73603 0.79015,-1.02828 0.61697,-0.29225 2.09986,-0.29225 1.47206,0 2.08903,0.29225 0.62779,0.29225 0.79015,1.02828 0.17319,0.72521 0.17319,2.48952 0,1.76431 -0.17319,2.50034 -0.16236,0.72521 -0.79015,1.01746 -0.61697,0.29225 -2.08903,0.29225 z m 0,-0.86592 q 1.10405,0 1.49371,-0.14071 0.38967,-0.14072 0.50873,-0.70356 0.11906,-0.56285 0.11906,-2.09986 0,-1.53701 -0.11906,-2.09986 -0.11906,-0.56284 -0.50873,-0.70356 -0.38966,-0.14071 -1.49371,-0.14071 -1.10405,0 -1.50454,0.14071 -0.38966,0.14072 -0.50872,0.70356 -0.11907,0.56285 -0.11907,2.09986 0,1.53701 0.11907,2.09986 0.11906,0.56284 0.50872,0.70356 0.40049,0.14071 1.50454,0.14071 z"
         style="font-weight:normal;font-size:10.82400036px;text-align:center;writing-mode:lr-tb;direction:ltr;text-anchor:middle"
         id="path1382" />
      <path
         d="m 207.34254,173.99445 h 2.37046 q 1.54783,0 2.18644,0.28143 0.63862,0.2706 0.8118,0.98498 0.17319,0.71439 0.17319,2.45705 0,1.74266 -0.17319,2.45705 -0.17318,0.71438 -0.8118,0.99581 -0.63861,0.2706 -2.18644,0.2706 h -2.37046 z m 2.21892,6.581 q 1.26641,0 1.69937,-0.12989 0.44378,-0.14071 0.57367,-0.67109 0.12989,-0.5412 0.12989,-2.05656 0,-1.50454 -0.14071,-2.04574 -0.12989,-0.5412 -0.57368,-0.67108 -0.43296,-0.14072 -1.68854,-0.14072 h -1.28806 v 5.71508 z"
         style="font-weight:normal;font-size:10.82400036px;text-align:center;writing-mode:lr-tb;direction:ltr;text-anchor:middle"
         id="path1384" />
      <path
         d="m 219.67597,181.44137 -3.92911,-5.69343 h -0.0433 v 5.69343 h -0.89839 v -7.44692 h 0.95251 l 3.87499,5.56354 h 0.0433 v -5.56354 h 0.88757 v 7.44692 z"
         style="font-weight:normal;font-size:10.82400036px;text-align:center;writing-mode:lr-tb;direction:ltr;text-anchor:middle"
         id="path1386" />
      <path
         d="m 227.78771,181.44137 -0.7685,-1.9808 h -3.35544 l -0.7685,1.9808 h -0.94169 l 2.81424,-7.44692 h 1.16899 l 2.81424,7.44692 z m -2.42457,-6.44028 h -0.0541 l -1.36383,3.58274 h 2.78177 z"
         style="font-weight:normal;font-size:10.82400036px;text-align:center;writing-mode:lr-tb;direction:ltr;text-anchor:middle"
         id="path1388" />
      <path
         d="m 229.41774,180.61874 q 0.82262,-0.0216 1.10404,-0.11906 0.29225,-0.10824 0.36802,-0.45461 0.0758,-0.34637 0.0758,-1.353 v -4.69762 h 0.93086 v 4.3729 q 0,1.60195 -0.12989,2.17562 -0.12988,0.57368 -0.59532,0.73604 -0.4546,0.15153 -1.75348,0.16236 z"
         style="font-weight:normal;font-size:10.82400036px;text-align:center;writing-mode:lr-tb;direction:ltr;text-anchor:middle"
         id="path1390" />
      <path
         d="m 233.97972,181.44137 v -7.44692 h 4.84915 v 0.86592 h -3.91829 v 2.39211 h 3.39874 v 0.86592 h -3.39874 v 2.45705 h 3.91829 v 0.86592 z"
         style="font-weight:normal;font-size:10.82400036px;text-align:center;writing-mode:lr-tb;direction:ltr;text-anchor:middle"
         id="path1392" />
      <path
         d="m 247.25552,181.44137 v -5.85579 h -0.0433 l -2.55447,5.85579 h -0.68191 l -2.54364,-5.85579 h -0.0433 v 5.85579 h -0.87675 v -7.44692 h 1.25559 l 2.54364,5.79084 h 0.0541 l 2.54364,-5.79084 h 1.25558 v 7.44692 z"
         style="font-weight:normal;font-size:10.82400036px;text-align:center;writing-mode:lr-tb;direction:ltr;text-anchor:middle"
         id="path1394" />
      <path
         d="m 252.87995,183.18403 v -9.7849 h 0.80098 v 9.7849 z"
         style="font-weight:normal;font-size:10.82400036px;text-align:center;writing-mode:lr-tb;direction:ltr;text-anchor:middle"
         id="path1396" />
    </g>
    <path
       inkscape:connector-curvature="0"
       id="path996-6-5-5-7-2-6-0"
       d="m 44.863629,105.24661 h 52.45164"
       style="font-style:normal;font-variant:normal;font-weight:600;font-stretch:normal;font-size:6.31233549px;line-height:1.25;font-family:Saira;-inkscape-font-specification:'Saira Semi-Bold';letter-spacing:0px;word-spacing:0px;opacity:1;fill:none;fill-opacity:1;stroke:#000000;stroke-width:0.17852128;stroke-linecap:butt;stroke-linejoin:miter;stroke-miterlimit:4;stroke-dasharray:none;stroke-opacity:1" />
    <g
       aria-label="NIERUCHOMOŚCI"
       transform="matrix(0.22327285,0,0,0.23312446,40.033545,65.846268)"
       style="font-style:normal;font-variant:normal;font-weight:600;font-stretch:normal;font-size:40px;line-height:1.25;font-family:Saira;-inkscape-font-specification:'Saira Semi-Bold';letter-spacing:0px;word-spacing:0px;writing-mode:lr-tb;direction:ltr;opacity:1;fill:#000000;fill-opacity:1;stroke:none;stroke-width:0.15780801"
       id="flowRoot4890-3-6-2-2-9-7-9-5-4-7-4">
      <path
         d="m 95.453896,181.44137 -4.020347,-5.96249 h -0.04948 v 5.96249 H 90.048075 V 172.9306 H 91.4954 l 3.909015,5.75219 h 0.04948 v -5.75219 h 1.335993 v 8.51077 z"
         style="font-style:normal;font-variant:normal;font-weight:500;font-stretch:normal;font-size:12.37030029px;font-family:Saira;-inkscape-font-specification:'Saira Medium';text-align:center;writing-mode:lr-tb;direction:ltr;text-anchor:middle;fill:#000000"
         id="path1315" />
      <path
         d="m 99.060032,181.44137 v -8.51077 h 1.397848 v 8.51077 z"
         style="font-style:normal;font-variant:normal;font-weight:500;font-stretch:normal;font-size:12.37030029px;font-family:Saira;-inkscape-font-specification:'Saira Medium';text-align:center;writing-mode:lr-tb;direction:ltr;text-anchor:middle;fill:#000000"
         id="path1317" />
      <path
         d="m 102.73247,181.44137 v -8.51077 h 5.67796 v 1.26177 h -4.28012 v 2.32562 h 3.69872 v 1.26177 h -3.69872 v 2.39984 h 4.28012 v 1.26177 z"
         style="font-style:normal;font-variant:normal;font-weight:500;font-stretch:normal;font-size:12.37030029px;font-family:Saira;-inkscape-font-specification:'Saira Medium';text-align:center;writing-mode:lr-tb;direction:ltr;text-anchor:middle;fill:#000000"
         id="path1319" />
      <path
         d="m 115.34302,181.44137 -1.26177,-3.21628 h -0.0247 -2.41221 v 3.21628 h -1.39784 v -8.51077 h 3.97086 q 1.03911,0 1.57103,0.32163 0.54429,0.30926 0.71748,0.87829 0.18555,0.55666 0.18555,1.44732 0,0.85355 -0.25977,1.53392 -0.24741,0.668 -1.002,0.92777 l 1.39785,3.40184 z m -1.7071,-4.46568 q 0.75459,0 1.10096,-0.1237 0.35873,-0.13608 0.4577,-0.4206 0.099,-0.28451 0.099,-0.85355 0,-0.59377 -0.099,-0.86592 -0.0866,-0.27214 -0.42059,-0.39585 -0.334,-0.1237 -1.08859,-0.1237 h -2.0411 v 2.78332 z"
         style="font-style:normal;font-variant:normal;font-weight:500;font-stretch:normal;font-size:12.37030029px;font-family:Saira;-inkscape-font-specification:'Saira Medium';text-align:center;writing-mode:lr-tb;direction:ltr;text-anchor:middle;fill:#000000"
         id="path1321" />
      <path
         d="m 125.18591,172.9306 v 4.73782 q 0,1.69474 -0.22266,2.47407 -0.22267,0.77932 -0.90303,1.08858 -0.68037,0.30926 -2.17718,0.30926 -1.4968,0 -2.18954,-0.30926 -0.68037,-0.30926 -0.9154,-1.08858 -0.22267,-0.7917 -0.22267,-2.47407 v -4.73782 h 1.39785 v 5.17079 q 0,1.0391 0.099,1.45969 0.11133,0.40822 0.49481,0.56903 0.38348,0.14845 1.33599,0.14845 0.94015,0 1.32363,-0.14845 0.38347,-0.16081 0.48244,-0.56903 0.099,-0.42059 0.099,-1.45969 v -5.17079 z"
         style="font-style:normal;font-variant:normal;font-weight:500;font-stretch:normal;font-size:12.37030029px;font-family:Saira;-inkscape-font-specification:'Saira Medium';text-align:center;writing-mode:lr-tb;direction:ltr;text-anchor:middle;fill:#000000"
         id="path1323" />
      <path
         d="m 132.68328,181.35477 q -0.40822,0.0866 -1.00199,0.13608 -0.58141,0.0495 -1.08859,0.0495 -1.54629,0 -2.27614,-0.35874 -0.72984,-0.35874 -0.97725,-1.2494 -0.24741,-0.89066 -0.24741,-2.74621 0,-1.85554 0.24741,-2.7462 0.24741,-0.89067 0.97725,-1.2494 0.72985,-0.35874 2.27614,-0.35874 0.51955,0 1.08859,0.0619 0.5814,0.0618 0.95251,0.14844 v 1.17518 q -0.98962,-0.1237 -1.69473,-0.1237 -1.21229,0 -1.68236,0.18555 -0.47007,0.18556 -0.61852,0.77933 -0.14844,0.59378 -0.14844,2.12769 0,1.53392 0.14844,2.12769 0.14845,0.59378 0.61852,0.77933 0.47007,0.18556 1.68236,0.18556 0.96488,0 1.74421,-0.1237 z"
         style="font-style:normal;font-variant:normal;font-weight:500;font-stretch:normal;font-size:12.37030029px;font-family:Saira;-inkscape-font-specification:'Saira Medium';text-align:center;writing-mode:lr-tb;direction:ltr;text-anchor:middle;fill:#000000"
         id="path1325" />
      <path
         d="m 139.83602,181.44137 v -3.63687 h -3.95849 v 3.63687 h -1.39785 v -8.51077 h 1.39785 v 3.57502 h 3.95849 v -3.57502 h 1.38548 v 8.51077 z"
         style="font-style:normal;font-variant:normal;font-weight:500;font-stretch:normal;font-size:12.37030029px;font-family:Saira;-inkscape-font-specification:'Saira Medium';text-align:center;writing-mode:lr-tb;direction:ltr;text-anchor:middle;fill:#000000"
         id="path1327" />
      <path
         d="m 146.7574,181.54033 q -1.70711,0 -2.43695,-0.34637 -0.71748,-0.35874 -0.91541,-1.19992 -0.19792,-0.84118 -0.19792,-2.80806 0,-1.96687 0.19792,-2.80805 0.19793,-0.84119 0.91541,-1.18755 0.72984,-0.35874 2.43695,-0.35874 1.7071,0 2.43695,0.35874 0.72984,0.34636 0.92777,1.19992 0.19792,0.84118 0.19792,2.79568 0,1.95451 -0.19792,2.80806 -0.19793,0.84118 -0.92777,1.19992 -0.72985,0.34637 -2.43695,0.34637 z m 0,-1.26177 q 1.13806,0 1.53391,-0.14845 0.39585,-0.14844 0.50719,-0.72984 0.1237,-0.58141 0.1237,-2.21429 0,-1.63288 -0.1237,-2.21428 -0.11134,-0.5814 -0.50719,-0.72985 -0.39585,-0.14844 -1.53391,-0.14844 -1.13807,0 -1.53392,0.14844 -0.38348,0.14845 -0.50718,0.72985 -0.11134,0.5814 -0.11134,2.21428 0,1.63288 0.11134,2.21429 0.1237,0.5814 0.50718,0.72984 0.39585,0.14845 1.53392,0.14845 z"
         style="font-style:normal;font-variant:normal;font-weight:500;font-stretch:normal;font-size:12.37030029px;font-family:Saira;-inkscape-font-specification:'Saira Medium';text-align:center;writing-mode:lr-tb;direction:ltr;text-anchor:middle;fill:#000000"
         id="path1329" />
      <path
         d="m 159.84382,181.44137 v -6.22226 h -0.0495 l -2.57302,6.22226 h -0.98963 l -2.56065,-6.22226 h -0.0495 v 6.22226 h -1.31125 v -8.51077 h 1.90503 l 2.51117,6.02434 h 0.0619 l 2.51117,-6.02434 h 1.89265 v 8.51077 z"
         style="font-style:normal;font-variant:normal;font-weight:500;font-stretch:normal;font-size:12.37030029px;font-family:Saira;-inkscape-font-specification:'Saira Medium';text-align:center;writing-mode:lr-tb;direction:ltr;text-anchor:middle;fill:#000000"
         id="path1331" />
      <path
         d="m 166.73833,181.54033 q -1.7071,0 -2.43695,-0.34637 -0.71747,-0.35874 -0.9154,-1.19992 -0.19792,-0.84118 -0.19792,-2.80806 0,-1.96687 0.19792,-2.80805 0.19793,-0.84119 0.9154,-1.18755 0.72985,-0.35874 2.43695,-0.35874 1.70711,0 2.43695,0.35874 0.72985,0.34636 0.92778,1.19992 0.19792,0.84118 0.19792,2.79568 0,1.95451 -0.19792,2.80806 -0.19793,0.84118 -0.92778,1.19992 -0.72984,0.34637 -2.43695,0.34637 z m 0,-1.26177 q 1.13807,0 1.53392,-0.14845 0.39585,-0.14844 0.50718,-0.72984 0.12371,-0.58141 0.12371,-2.21429 0,-1.63288 -0.12371,-2.21428 -0.11133,-0.5814 -0.50718,-0.72985 -0.39585,-0.14844 -1.53392,-0.14844 -1.13806,0 -1.53391,0.14844 -0.38348,0.14845 -0.50719,0.72985 -0.11133,0.5814 -0.11133,2.21428 0,1.63288 0.11133,2.21429 0.12371,0.5814 0.50719,0.72984 0.39585,0.14845 1.53391,0.14845 z"
         style="font-style:normal;font-variant:normal;font-weight:500;font-stretch:normal;font-size:12.37030029px;font-family:Saira;-inkscape-font-specification:'Saira Medium';text-align:center;writing-mode:lr-tb;direction:ltr;text-anchor:middle;fill:#000000"
         id="path1333" />
      <path
         d="m 175.19826,181.54033 q -0.70511,0 -1.55866,-0.0495 -0.85355,-0.0495 -1.4968,-0.13608 v -1.22466 q 1.52154,0.14845 2.64724,0.14845 0.668,0 1.03911,-0.0495 0.3711,-0.0619 0.5814,-0.19793 0.19792,-0.1237 0.25978,-0.34637 0.0618,-0.23503 0.0618,-0.65562 0,-0.4577 -0.0618,-0.668 -0.0495,-0.21029 -0.23504,-0.30926 -0.17318,-0.099 -0.59377,-0.13607 l -2.02873,-0.23503 q -0.77933,-0.0866 -1.19992,-0.37111 -0.40822,-0.29689 -0.56904,-0.77933 -0.14844,-0.48244 -0.14844,-1.22466 0,-1.05148 0.37111,-1.5834 0.38348,-0.54429 1.0391,-0.71748 0.65563,-0.17318 1.70711,-0.17318 0.71747,0 1.47206,0.0742 0.75459,0.0619 1.22466,0.16081 v 1.18755 q -0.4577,-0.0742 -1.13807,-0.11133 -0.68036,-0.0495 -1.28651,-0.0495 -0.65562,0 -1.0391,0.0495 -0.38348,0.0495 -0.59378,0.17318 -0.22266,0.12371 -0.28451,0.334 -0.0619,0.19793 -0.0619,0.59378 0,0.44533 0.0619,0.64325 0.0618,0.18556 0.2474,0.27215 0.19793,0.0866 0.63089,0.13607 l 2.0411,0.23504 q 0.64325,0.0618 1.02673,0.25977 0.39585,0.18556 0.59378,0.65563 0.22266,0.49481 0.22266,1.50918 0,1.12569 -0.35874,1.69473 -0.35874,0.55666 -0.96488,0.72985 -0.60615,0.16081 -1.60814,0.16081 z m -0.70511,-9.31484 v -0.0619 l 0.59378,-1.7071 h 1.36073 v 0.0619 l -0.98962,1.7071 z"
         style="font-style:normal;font-variant:normal;font-weight:500;font-stretch:normal;font-size:12.37030029px;font-family:Saira;-inkscape-font-specification:'Saira Medium';text-align:center;writing-mode:lr-tb;direction:ltr;text-anchor:middle;fill:#000000"
         id="path1335" />
      <path
         d="m 185.32954,181.35477 q -0.40822,0.0866 -1.002,0.13608 -0.5814,0.0495 -1.08858,0.0495 -1.54629,0 -2.27614,-0.35874 -0.72985,-0.35874 -0.97725,-1.2494 -0.24741,-0.89066 -0.24741,-2.74621 0,-1.85554 0.24741,-2.7462 0.2474,-0.89067 0.97725,-1.2494 0.72985,-0.35874 2.27614,-0.35874 0.51955,0 1.08858,0.0619 0.58141,0.0618 0.95251,0.14844 v 1.17518 q -0.98962,-0.1237 -1.69473,-0.1237 -1.21229,0 -1.68236,0.18555 -0.47007,0.18556 -0.61851,0.77933 -0.14845,0.59378 -0.14845,2.12769 0,1.53392 0.14845,2.12769 0.14844,0.59378 0.61851,0.77933 0.47007,0.18556 1.68236,0.18556 0.96489,0 1.74422,-0.1237 z"
         style="font-style:normal;font-variant:normal;font-weight:500;font-stretch:normal;font-size:12.37030029px;font-family:Saira;-inkscape-font-specification:'Saira Medium';text-align:center;writing-mode:lr-tb;direction:ltr;text-anchor:middle;fill:#000000"
         id="path1337" />
      <path
         d="m 187.12594,181.44137 v -8.51077 h 1.39784 v 8.51077 z"
         style="font-style:normal;font-variant:normal;font-weight:500;font-stretch:normal;font-size:12.37030029px;font-family:Saira;-inkscape-font-specification:'Saira Medium';text-align:center;writing-mode:lr-tb;direction:ltr;text-anchor:middle;fill:#000000"
         id="path1339" />
    </g>
  </g>
</svg>
