<?xml version="1.0" encoding="UTF-8" standalone="no"?>
<!-- Created with Inkscape (http://www.inkscape.org/) -->

<svg
   xmlns:dc="http://purl.org/dc/elements/1.1/"
   xmlns:cc="http://creativecommons.org/ns#"
   xmlns:rdf="http://www.w3.org/1999/02/22-rdf-syntax-ns#"
   xmlns:svg="http://www.w3.org/2000/svg"
   xmlns="http://www.w3.org/2000/svg"
   xmlns:sodipodi="http://sodipodi.sourceforge.net/DTD/sodipodi-0.dtd"
   xmlns:inkscape="http://www.inkscape.org/namespaces/inkscape"
   width="200mm"
   height="104.18314mm"
   viewBox="0 0 200 104.18315"
   version="1.1"
   id="svg2515"
   inkscape:version="0.92.5 (2060ec1f9f, 2020-04-08)"
   sodipodi:docname="logo official_v01_rzeczoznawca.svg">
  <defs
     id="defs2509" />
  <sodipodi:namedview
     id="base"
     pagecolor="#ffffff"
     bordercolor="#666666"
     borderopacity="1.0"
     inkscape:pageopacity="0.0"
     inkscape:pageshadow="2"
     inkscape:zoom="0.49497475"
     inkscape:cx="56.798483"
     inkscape:cy="186.52737"
     inkscape:document-units="mm"
     inkscape:current-layer="layer1"
     showgrid="false"
     inkscape:window-width="1920"
     inkscape:window-height="976"
     inkscape:window-x="-8"
     inkscape:window-y="-8"
     inkscape:window-maximized="1"
     showguides="false"
     inkscape:guide-bbox="true">
    <sodipodi:guide
       position="-0.17474115,51.76789"
       orientation="1,0"
       id="guide2985"
       inkscape:locked="false" />
    <sodipodi:guide
       position="52.52655,49.92563"
       orientation="1,0"
       id="guide2989"
       inkscape:locked="false" />
  </sodipodi:namedview>
  <metadata
     id="metadata2512">
    <rdf:RDF>
      <cc:Work
         rdf:about="">
        <dc:format>image/svg+xml</dc:format>
        <dc:type
           rdf:resource="http://purl.org/dc/dcmitype/StillImage" />
        <dc:title></dc:title>
      </cc:Work>
    </rdf:RDF>
  </metadata>
  <g
     inkscape:label="Layer 1"
     inkscape:groupmode="layer"
     id="layer1"
     transform="translate(-112.82389,26.756719)">
    <path
       d="m 119.12935,51.253629 -1.474,-4.121249 h -1.98172 v 4.121249 h -2.84974 V 39.488418 h 5.40467 q 1.55595,0 2.34203,0.461717 0.80256,0.444613 1.04824,1.248343 0.2624,0.786627 0.2624,2.120477 0,1.231235 -0.3113,2.13757 -0.2945,0.906326 -1.19559,1.316741 l 1.73604,4.480363 z m -1.98171,-6.481127 q 0.8844,0 1.24475,-0.102596 0.37662,-0.102596 0.49132,-0.376199 0.1146,-0.290753 0.1146,-0.957629 0,-0.684021 -0.0982,-0.957636 -0.0985,-0.290752 -0.47498,-0.393311 -0.36019,-0.102596 -1.24471,-0.102596 h -1.50678 v 2.890002 z"
       style="font-style:normal;font-variant:normal;font-weight:bold;font-stretch:normal;font-size:21.33329964px;line-height:1.25;font-family:Saira;-inkscape-font-specification:'Saira Bold';text-align:center;letter-spacing:0px;word-spacing:0px;writing-mode:lr-tb;direction:ltr;text-anchor:middle;fill:#000000;fill-opacity:1;stroke:none;stroke-width:0.12379589"
       id="path1947"
       inkscape:connector-curvature="0" />
    <path
       d="m 123.46441,51.253629 v -2.325684 l 5.15903,-7.028347 h -4.96251 v -2.41118 h 8.51656 v 2.240173 l -5.20819,7.113847 h 5.22458 v 2.411191 z"
       style="font-style:normal;font-variant:normal;font-weight:bold;font-stretch:normal;font-size:21.33329964px;line-height:1.25;font-family:Saira;-inkscape-font-specification:'Saira Bold';text-align:center;letter-spacing:0px;word-spacing:0px;writing-mode:lr-tb;direction:ltr;text-anchor:middle;fill:#000000;fill-opacity:1;stroke:none;stroke-width:0.12379589"
       id="path1949"
       inkscape:connector-curvature="0" />
    <path
       d="M 134.09599,51.253629 V 39.488418 h 7.99243 v 2.41118 h -5.14265 v 2.205983 h 4.35652 v 2.411176 h -4.35652 v 2.325681 h 5.14265 v 2.411191 z"
       style="font-style:normal;font-variant:normal;font-weight:bold;font-stretch:normal;font-size:21.33329964px;line-height:1.25;font-family:Saira;-inkscape-font-specification:'Saira Bold';text-align:center;letter-spacing:0px;word-spacing:0px;writing-mode:lr-tb;direction:ltr;text-anchor:middle;fill:#000000;fill-opacity:1;stroke:none;stroke-width:0.12379589"
       id="path1951"
       inkscape:connector-curvature="0" />
    <path
       d="m 151.67338,51.099719 q -0.55687,0.119708 -1.40851,0.205231 -0.83528,0.08552 -1.57228,0.08552 -2.12912,0 -3.14455,-0.547213 -1.01545,-0.547221 -1.34303,-1.778467 -0.32773,-1.231235 -0.32773,-3.693725 0,-2.428288 0.32773,-3.659527 0.34415,-1.231243 1.35938,-1.795564 1.01542,-0.564318 3.1282,-0.564318 0.737,0 1.55586,0.102596 0.81894,0.08552 1.35942,0.222267 V 41.9338 q -1.67057,-0.171006 -2.21105,-0.171006 -1.34296,0 -1.85071,0.222266 -0.50767,0.205231 -0.65511,0.88923 -0.13101,0.666926 -0.13101,2.496687 0,1.829762 0.13101,2.513791 0.14782,0.666926 0.65511,0.889231 0.50775,0.20523 1.85071,0.20523 1.21197,0 2.27656,-0.171045 z"
       style="font-style:normal;font-variant:normal;font-weight:bold;font-stretch:normal;font-size:21.33329964px;line-height:1.25;font-family:Saira;-inkscape-font-specification:'Saira Bold';text-align:center;letter-spacing:0px;word-spacing:0px;writing-mode:lr-tb;direction:ltr;text-anchor:middle;fill:#000000;fill-opacity:1;stroke:none;stroke-width:0.12379589"
       id="path1953"
       inkscape:connector-curvature="0" />
    <path
       d="m 153.08543,51.253629 v -2.325684 l 5.15907,-7.028347 h -4.96251 v -2.41118 h 8.51652 v 2.240173 l -5.20816,7.113847 h 5.22455 v 2.411191 z"
       style="font-style:normal;font-variant:normal;font-weight:bold;font-stretch:normal;font-size:21.33329964px;line-height:1.25;font-family:Saira;-inkscape-font-specification:'Saira Bold';text-align:center;letter-spacing:0px;word-spacing:0px;writing-mode:lr-tb;direction:ltr;text-anchor:middle;fill:#000000;fill-opacity:1;stroke:none;stroke-width:0.12379589"
       id="path1955"
       inkscape:connector-curvature="0" />
    <path
       d="m 168.31925,51.390426 q -2.3748,0 -3.39022,-0.513016 -0.99907,-0.530116 -1.26114,-1.675855 -0.2456,-1.145744 -0.2456,-3.830537 0,-2.684795 0.2456,-3.83053 0.26203,-1.14574 1.26114,-1.658763 1.01542,-0.530116 3.39022,-0.530116 2.37481,0 3.37384,0.530116 1.01546,0.513023 1.26114,1.658763 0.2456,1.145735 0.2456,3.83053 0,2.684793 -0.2456,3.830537 -0.2456,1.145739 -1.26114,1.675855 -0.99903,0.513016 -3.37384,0.513016 z m 0,-2.41118 q 1.06454,0 1.42486,-0.171006 0.36019,-0.188118 0.45862,-0.837928 0.0982,-0.649817 0.0982,-2.599287 0,-1.949463 -0.0982,-2.599287 -0.0982,-0.649828 -0.45862,-0.820831 -0.3602,-0.188081 -1.42486,-0.188081 -1.06458,0 -1.44127,0.188081 -0.37662,0.171007 -0.47494,0.837924 -0.0985,0.666925 -0.0985,2.582194 0,1.915265 0.0985,2.582194 0.0982,0.666922 0.47494,0.855021 0.37662,0.171006 1.44127,0.171006 z"
       style="font-style:normal;font-variant:normal;font-weight:bold;font-stretch:normal;font-size:21.33329964px;line-height:1.25;font-family:Saira;-inkscape-font-specification:'Saira Bold';text-align:center;letter-spacing:0px;word-spacing:0px;writing-mode:lr-tb;direction:ltr;text-anchor:middle;fill:#000000;fill-opacity:1;stroke:none;stroke-width:0.12379589"
       id="path1957"
       inkscape:connector-curvature="0" />
    <path
       d="m 174.80539,51.253629 v -2.325684 l 5.15908,-7.028347 h -4.96252 v -2.41118 h 8.51656 v 2.240173 l -5.2082,7.113847 h 5.22455 v 2.411191 z"
       style="font-style:normal;font-variant:normal;font-weight:bold;font-stretch:normal;font-size:21.33329964px;line-height:1.25;font-family:Saira;-inkscape-font-specification:'Saira Bold';text-align:center;letter-spacing:0px;word-spacing:0px;writing-mode:lr-tb;direction:ltr;text-anchor:middle;fill:#000000;fill-opacity:1;stroke:none;stroke-width:0.12379589"
       id="path1959"
       inkscape:connector-curvature="0" />
    <path
       d="m 192.10283,51.253629 -3.89797,-6.720539 h -0.0817 v 6.720539 h -2.71868 V 39.488418 h 2.93164 l 3.61951,6.104908 h 0.0817 v -6.104908 h 2.73515 v 11.765211 z"
       style="font-style:normal;font-variant:normal;font-weight:bold;font-stretch:normal;font-size:21.33329964px;line-height:1.25;font-family:Saira;-inkscape-font-specification:'Saira Bold';text-align:center;letter-spacing:0px;word-spacing:0px;writing-mode:lr-tb;direction:ltr;text-anchor:middle;fill:#000000;fill-opacity:1;stroke:none;stroke-width:0.12379589"
       id="path1961"
       inkscape:connector-curvature="0" />
    <path
       d="m 204.25273,51.253629 -0.67154,-2.22308 h -4.01256 l -0.63876,2.22308 h -2.84974 l 3.60314,-11.765211 h 3.86519 l 3.60313,11.765211 z m -2.65326,-9.131727 h -0.0817 l -1.29387,4.497463 h 2.68599 z"
       style="font-style:normal;font-variant:normal;font-weight:bold;font-stretch:normal;font-size:21.33329964px;line-height:1.25;font-family:Saira;-inkscape-font-specification:'Saira Bold';text-align:center;letter-spacing:0px;word-spacing:0px;writing-mode:lr-tb;direction:ltr;text-anchor:middle;fill:#000000;fill-opacity:1;stroke:none;stroke-width:0.12379589"
       id="path1963"
       inkscape:connector-curvature="0" />
    <path
       d="m 216.54178,51.253629 -1.68691,-7.062552 h -0.0982 l -1.68695,7.062552 h -3.60317 l -2.58764,-11.765211 h 2.84978 l 1.68695,8.242489 h 0.0817 l 1.88347,-8.242489 h 2.91529 l 1.91621,8.242489 h 0.0982 l 1.57222,-8.242489 h 2.83335 l -2.58767,11.765211 z"
       style="font-style:normal;font-variant:normal;font-weight:bold;font-stretch:normal;font-size:21.33329964px;line-height:1.25;font-family:Saira;-inkscape-font-specification:'Saira Bold';text-align:center;letter-spacing:0px;word-spacing:0px;writing-mode:lr-tb;direction:ltr;text-anchor:middle;fill:#000000;fill-opacity:1;stroke:none;stroke-width:0.12379589"
       id="path1965"
       inkscape:connector-curvature="0" />
    <path
       d="m 231.09999,51.099719 q -0.55688,0.119708 -1.40851,0.205231 -0.83525,0.08552 -1.57225,0.08552 -2.12916,0 -3.14458,-0.547213 -1.01542,-0.547221 -1.34299,-1.778467 -0.32773,-1.231235 -0.32773,-3.693725 0,-2.428288 0.32773,-3.659527 0.34415,-1.231243 1.35934,-1.795564 1.01542,-0.564318 3.12823,-0.564318 0.737,0 1.55587,0.102596 0.81889,0.08552 1.35937,0.222267 V 41.9338 q -1.67056,-0.171006 -2.21104,-0.171006 -1.34296,0 -1.85068,0.222266 -0.5077,0.205231 -0.65511,0.88923 -0.13101,0.666926 -0.13101,2.496687 0,1.829762 0.13101,2.513791 0.14783,0.666926 0.65511,0.889231 0.50772,0.20523 1.85068,0.20523 1.21201,0 2.27656,-0.171045 z"
       style="font-style:normal;font-variant:normal;font-weight:bold;font-stretch:normal;font-size:21.33329964px;line-height:1.25;font-family:Saira;-inkscape-font-specification:'Saira Bold';text-align:center;letter-spacing:0px;word-spacing:0px;writing-mode:lr-tb;direction:ltr;text-anchor:middle;fill:#000000;fill-opacity:1;stroke:none;stroke-width:0.12379589"
       id="path1967"
       inkscape:connector-curvature="0" />
    <path
       d="m 240.11142,51.253629 -0.67147,-2.22308 h -4.01259 l -0.63877,2.22308 h -2.84973 l 3.60313,-11.765211 h 3.8652 l 3.60312,11.765211 z m -2.65318,-9.131727 h -0.0817 l -1.29384,4.497463 h 2.68595 z"
       style="font-style:normal;font-variant:normal;font-weight:bold;font-stretch:normal;font-size:21.33329964px;line-height:1.25;font-family:Saira;-inkscape-font-specification:'Saira Bold';text-align:center;letter-spacing:0px;word-spacing:0px;writing-mode:lr-tb;direction:ltr;text-anchor:middle;fill:#000000;fill-opacity:1;stroke:none;stroke-width:0.12379589"
       id="path1969"
       inkscape:connector-curvature="0" />
    <path
       d="m 248.51995,51.390426 q -0.90075,0 -2.01445,-0.06837 -1.09735,-0.06837 -1.94899,-0.171006 v -1.350947 q 2.12916,0.222266 3.55401,0.222266 0.88441,0 1.39212,-0.06837 0.52414,-0.08552 0.8844,-0.290753 0.32773,-0.205231 0.42586,-0.598519 0.0982,-0.410416 0.0982,-1.077337 0,-0.803731 -0.0817,-1.128639 -0.0817,-0.342013 -0.39312,-0.495919 -0.29449,-0.153894 -1.03177,-0.222266 l -2.78423,-0.324901 q -1.01549,-0.119747 -1.53959,-0.495919 -0.50767,-0.393311 -0.68784,-1.00893 -0.16349,-0.632732 -0.16349,-1.641662 0,-1.40225 0.45859,-2.120473 0.47498,-0.718227 1.31023,-0.957632 0.85167,-0.239417 2.27652,-0.239417 0.94995,0 1.9326,0.08552 0.98272,0.08552 1.55593,0.205231 v 1.299645 q -0.62233,-0.102596 -1.53951,-0.153894 -0.91717,-0.06838 -1.7033,-0.06838 -0.91718,0 -1.47401,0.08552 -0.55687,0.08552 -0.86806,0.290753 -0.34377,0.205231 -0.44224,0.547213 -0.0982,0.342013 -0.0982,0.974737 0,0.701127 0.0982,1.026035 0.0982,0.307789 0.37662,0.461718 0.27845,0.136782 0.91714,0.20523 l 2.75149,0.324901 q 0.98265,0.102597 1.52314,0.359125 0.54048,0.256529 0.78612,0.923435 0.22957,0.615624 0.22957,1.966571 0,1.556155 -0.4586,2.325684 -0.45855,0.752417 -1.22832,0.974726 -0.76978,0.20523 -2.11281,0.20523 z m -0.80247,-12.910947 v -0.08552 l 0.83528,-2.32568 h 1.44124 v 0.08552 l -1.29383,2.32568 z"
       style="font-style:normal;font-variant:normal;font-weight:normal;font-stretch:normal;font-size:40px;line-height:1.25;font-family:Saira;-inkscape-font-specification:'Saira Semi-Bold';letter-spacing:0px;word-spacing:0px;writing-mode:lr-tb;direction:ltr;fill:#000000;fill-opacity:1;stroke:none;stroke-width:0.12379589"
       id="path1971"
       inkscape:connector-curvature="0" />
    <path
       d="M 255.06961,51.253629 V 39.488418 h 1.4085 v 10.345857 h 5.25732 v 1.419354 z"
       style="font-style:normal;font-variant:normal;font-weight:normal;font-stretch:normal;font-size:40px;line-height:1.25;font-family:Saira;-inkscape-font-specification:'Saira Semi-Bold';letter-spacing:0px;word-spacing:0px;writing-mode:lr-tb;direction:ltr;fill:#000000;fill-opacity:1;stroke:none;stroke-width:0.12379589"
       id="path1973"
       inkscape:connector-curvature="0" />
    <path
       d="m 271.69506,52.946586 q 0,0.684025 0.76969,0.684025 l 0.27846,-0.01719 v 0.957637 q -0.5896,0.03438 -0.63872,0.03438 -1.5723,0 -1.5723,-1.333843 0,-0.478822 0.26165,-1.026031 0.26203,-0.547228 0.70427,-1.008942 l -1.14647,-3.112306 h -5.07717 l -1.16283,3.12941 h -1.42485 l 4.25828,-11.765211 h 1.76881 l 4.25824,11.765211 h -0.3113 q -0.36019,0.307789 -0.6715,0.803723 -0.29449,0.495923 -0.29449,0.88923 z m -5.99439,-6.207516 h 4.20915 l -2.06361,-5.660304 h -0.0817 z"
       style="font-style:normal;font-variant:normal;font-weight:normal;font-stretch:normal;font-size:40px;line-height:1.25;font-family:Saira;-inkscape-font-specification:'Saira Semi-Bold';letter-spacing:0px;word-spacing:0px;writing-mode:lr-tb;direction:ltr;fill:#000000;fill-opacity:1;stroke:none;stroke-width:0.12379589"
       id="path1975"
       inkscape:connector-curvature="0" />
    <path
       d="m 278.81278,51.390426 q -0.90079,0 -2.0145,-0.06837 -1.09735,-0.06837 -1.94898,-0.171006 v -1.350947 q 2.12916,0.222266 3.55401,0.222266 0.8844,0 1.39215,-0.06837 0.5241,-0.08552 0.88441,-0.290753 0.32772,-0.205231 0.42581,-0.598519 0.0982,-0.410416 0.0982,-1.077337 0,-0.803731 -0.0817,-1.128639 -0.0817,-0.342013 -0.39304,-0.495919 -0.2945,-0.153894 -1.03185,-0.222266 l -2.78427,-0.324901 q -1.01538,-0.119747 -1.53948,-0.495919 -0.50775,-0.393311 -0.68788,-1.00893 -0.16387,-0.632732 -0.16387,-1.641662 0,-1.40225 0.45867,-2.120473 0.47494,-0.718227 1.31018,-0.957632 0.85164,-0.239417 2.27653,-0.239417 0.94995,0 1.93259,0.08552 0.98269,0.08552 1.55594,0.205231 v 1.299645 q -0.62237,-0.102596 -1.53955,-0.153894 -0.91714,-0.06838 -1.7033,-0.06838 -0.91719,0 -1.47401,0.08552 -0.55683,0.08552 -0.86802,0.290753 -0.34377,0.205231 -0.4422,0.547213 -0.0982,0.342013 -0.0982,0.974737 0,0.701127 0.0982,1.026035 0.0985,0.307789 0.37661,0.461718 0.27846,0.136782 0.91718,0.20523 l 2.75146,0.324901 q 0.98269,0.102597 1.52313,0.359125 0.54052,0.256529 0.7862,0.923435 0.22957,0.615624 0.22957,1.966571 0,1.556155 -0.45859,2.325684 -0.45863,0.752417 -1.22833,0.974726 -0.76978,0.20523 -2.11278,0.20523 z"
       style="font-style:normal;font-variant:normal;font-weight:normal;font-stretch:normal;font-size:40px;line-height:1.25;font-family:Saira;-inkscape-font-specification:'Saira Semi-Bold';letter-spacing:0px;word-spacing:0px;writing-mode:lr-tb;direction:ltr;fill:#000000;fill-opacity:1;stroke:none;stroke-width:0.12379589"
       id="path1977"
       inkscape:connector-curvature="0" />
    <path
       d="m 292.63424,51.253629 -3.83246,-5.301193 h -2.03088 v 5.301193 h -1.40851 V 39.488418 h 1.40851 v 5.095977 h 2.03088 l 3.84881,-5.095977 h 1.57228 l -4.291,5.6945 4.34013,6.070711 z"
       style="font-style:normal;font-variant:normal;font-weight:normal;font-stretch:normal;font-size:40px;line-height:1.25;font-family:Saira;-inkscape-font-specification:'Saira Semi-Bold';letter-spacing:0px;word-spacing:0px;writing-mode:lr-tb;direction:ltr;fill:#000000;fill-opacity:1;stroke:none;stroke-width:0.12379589"
       id="path1979"
       inkscape:connector-curvature="0" />
    <path
       d="m 295.77675,51.253629 v -2.530892 h 2.80062 v 2.530892 z"
       style="font-style:normal;font-variant:normal;font-weight:bold;font-stretch:normal;font-size:21.33329964px;line-height:1.25;font-family:Saira;-inkscape-font-specification:'Saira Bold';text-align:center;letter-spacing:0px;word-spacing:0px;writing-mode:lr-tb;direction:ltr;text-anchor:middle;fill:#000000;fill-opacity:1;stroke:none;stroke-width:0.12379589"
       id="path1981"
       inkscape:connector-curvature="0" />
    <path
       d="m 300.62177,42.532322 h 2.50586 l 0.0657,1.043139 h 0.14743 q 0.34415,-0.666922 0.94995,-0.923431 0.60595,-0.256529 1.4085,-0.256529 1.01543,0 1.58864,0.393311 0.58964,0.393318 0.86806,1.368056 0.27846,0.957625 0.27846,2.701886 0,1.761364 -0.27846,2.736104 -0.26241,0.974722 -0.85163,1.385137 -0.57326,0.393319 -1.58871,0.393319 -0.83529,0 -1.40851,-0.205231 -0.55687,-0.222266 -0.91717,-0.837927 h -0.13102 v 4.326448 h -2.63679 z m 3.89798,6.515327 q 0.63872,0 0.8844,-0.119708 0.2456,-0.119709 0.3113,-0.53012 0.0817,-0.427516 0.0817,-1.504846 0,-1.077341 -0.0817,-1.487753 -0.0657,-0.427516 -0.3113,-0.547224 -0.2456,-0.13682 -0.8844,-0.13682 -0.49133,0 -0.73701,0.119708 -0.2456,0.119708 -0.36019,0.427512 -0.0982,0.239417 -0.13102,0.615624 -0.0344,0.376199 -0.0344,1.008938 0,0.649817 0.0191,1.026031 0.0344,0.359125 0.13102,0.564318 0.11459,0.324901 0.36019,0.444617 0.24561,0.119708 0.75332,0.119708 z"
       style="font-style:normal;font-variant:normal;font-weight:bold;font-stretch:normal;font-size:21.33329964px;line-height:1.25;font-family:Saira;-inkscape-font-specification:'Saira Bold';text-align:center;letter-spacing:0px;word-spacing:0px;writing-mode:lr-tb;direction:ltr;text-anchor:middle;fill:#000000;fill-opacity:1;stroke:none;stroke-width:0.12379589"
       id="path1983"
       inkscape:connector-curvature="0" />
    <path
       d="M 310.15429,51.253629 V 38.547878 h 2.6696 v 12.705751 z"
       style="font-style:normal;font-variant:normal;font-weight:bold;font-stretch:normal;font-size:21.33329964px;line-height:1.25;font-family:Saira;-inkscape-font-specification:'Saira Bold';text-align:center;letter-spacing:0px;word-spacing:0px;writing-mode:lr-tb;direction:ltr;text-anchor:middle;fill:#000000;fill-opacity:1;stroke:none;stroke-width:0.12379589"
       id="path1985"
       inkscape:connector-curvature="0" />
    <g
       aria-label="| wycena NIERUCHOMOŚCI |"
       transform="matrix(0.76771725,0,0,0.80159176,88.288948,-83.856658)"
       id="flowRoot4890-3-1-3-6-2-2-1"
       style="font-style:normal;font-variant:normal;font-weight:600;font-stretch:normal;font-size:40px;line-height:1.25;font-family:Saira;-inkscape-font-specification:'Saira Semi-Bold';letter-spacing:0px;word-spacing:0px;writing-mode:lr-tb;direction:ltr;opacity:1;fill:#000000;fill-opacity:1;stroke:none;stroke-width:0.15780801">
      <path
         d="m 92.803132,183.18403 v -9.7849 h 0.800976 v 9.7849 z"
         style="font-weight:normal;font-size:10.82400036px;text-align:center;writing-mode:lr-tb;direction:ltr;text-anchor:middle"
         id="path1988"
         inkscape:connector-curvature="0" />
      <path
         d="m 102.96382,181.44137 -1.27723,-3.95076 h -0.0758 l -1.25558,3.95076 h -1.017456 l -1.764312,-5.52024 h 0.909216 l 1.353,4.38372 h 0.07577 l 1.342172,-4.38372 h 0.83345 l 1.353,4.38372 h 0.0758 l 1.34217,-4.38372 h 0.88757 l -1.76431,5.52024 z"
         style="font-weight:normal;font-size:10.82400036px;text-align:center;writing-mode:lr-tb;direction:ltr;text-anchor:middle"
         id="path1990"
         inkscape:connector-curvature="0" />
      <path
         d="m 109.1379,183.67111 q -1.15817,0 -1.86173,-0.0974 v -0.75768 q 1.19064,0.0541 1.6669,0.0541 0.83345,0 1.21229,-0.17318 0.37884,-0.16236 0.48708,-0.53038 0.10824,-0.35719 0.10824,-1.13652 v -0.32472 h -0.0649 q -0.16236,0.36802 -0.58449,0.5845 -0.41131,0.20566 -1.20147,0.20566 -0.79015,0 -1.20146,-0.21648 -0.40049,-0.22731 -0.5412,-0.67109 -0.14071,-0.45461 -0.14071,-1.24476 v -3.44203 h 0.87674 v 3.08484 q 0,0.77932 0.0866,1.10404 0.0974,0.32472 0.36802,0.43296 0.2706,0.10824 0.90922,0.10824 0.68191,0 0.9958,-0.21648 0.32472,-0.21648 0.41132,-0.59532 0.0866,-0.37884 0.0866,-1.0824 v -2.83588 h 0.87674 v 4.84915 q 0,1.14734 -0.17318,1.74266 -0.17319,0.59532 -0.70356,0.87675 -0.53038,0.28142 -1.61278,0.28142 z"
         style="font-weight:normal;font-size:10.82400036px;text-align:center;writing-mode:lr-tb;direction:ltr;text-anchor:middle"
         id="path1992"
         inkscape:connector-curvature="0" />
      <path
         d="m 117.01354,181.38725 q -0.29224,0.0541 -0.71438,0.0974 -0.41131,0.0433 -0.79015,0.0433 -1.01746,0 -1.49371,-0.29225 -0.47626,-0.29225 -0.61697,-0.86592 -0.12989,-0.57367 -0.12989,-1.68854 0,-1.09323 0.16236,-1.68855 0.16236,-0.59532 0.63862,-0.87674 0.47625,-0.28143 1.40712,-0.28143 0.36801,0 0.77932,0.0433 0.42214,0.0433 0.71439,0.0974 v 0.77932 q -0.64944,-0.11906 -1.27723,-0.11906 -0.69274,0 -1.01746,0.16236 -0.3139,0.16236 -0.42214,0.57367 -0.10824,0.41131 -0.10824,1.30971 0,0.90921 0.10824,1.33135 0.11907,0.41131 0.43296,0.56285 0.32472,0.15153 1.03911,0.15153 0.53037,0 1.28805,-0.10824 z"
         style="font-weight:normal;font-size:10.82400036px;text-align:center;writing-mode:lr-tb;direction:ltr;text-anchor:middle"
         id="path1994"
         inkscape:connector-curvature="0" />
      <path
         d="m 122.91195,178.99514 h -3.77758 q 0,0.79015 0.10824,1.1257 0.10824,0.33554 0.46543,0.47625 0.36802,0.12989 1.22312,0.12989 0.83344,0 1.76431,-0.11906 v 0.7685 q -0.34637,0.065 -0.89839,0.10824 -0.55203,0.0433 -1.04993,0.0433 -1.11487,0 -1.64525,-0.25978 -0.51955,-0.25977 -0.68191,-0.83345 -0.16236,-0.57367 -0.16236,-1.74266 0,-1.14734 0.14071,-1.72102 0.15154,-0.57367 0.66026,-0.85509 0.51956,-0.28143 1.63443,-0.28143 1.0391,0 1.50453,0.28143 0.46544,0.2706 0.5845,0.83345 0.12989,0.55202 0.12989,1.73184 z m -2.24057,-2.35963 q -0.70356,0 -1.01746,0.12989 -0.30307,0.11906 -0.41131,0.46543 -0.0974,0.33554 -0.10824,1.09322 h 2.93331 v -0.0866 q 0,-0.71438 -0.12989,-1.04993 -0.11907,-0.33554 -0.40049,-0.44378 -0.28142,-0.10824 -0.86592,-0.10824 z"
         style="font-weight:normal;font-size:10.82400036px;text-align:center;writing-mode:lr-tb;direction:ltr;text-anchor:middle"
         id="path1996"
         inkscape:connector-curvature="0" />
      <path
         d="m 128.2974,178.33488 q 0,-0.76851 -0.0974,-1.09323 -0.0974,-0.33554 -0.36802,-0.44378 -0.2706,-0.10824 -0.90921,-0.10824 -0.68191,0 -1.00663,0.21648 -0.3139,0.21648 -0.40049,0.59532 -0.0758,0.37884 -0.0758,1.09322 v 2.84672 h -0.87674 v -5.52024 h 0.77932 l 0.0433,0.77932 h 0.0649 q 0.18401,-0.42213 0.60615,-0.63861 0.42213,-0.22731 1.22311,-0.22731 0.80098,0 1.20146,0.22731 0.41132,0.2273 0.55203,0.68191 0.14071,0.44378 0.14071,1.24476 v 3.45286 h -0.87674 z"
         style="font-weight:normal;font-size:10.82400036px;text-align:center;writing-mode:lr-tb;direction:ltr;text-anchor:middle"
         id="path1998"
         inkscape:connector-curvature="0" />
      <path
         d="m 132.52535,181.52796 q -0.95251,0 -1.38547,-0.34637 -0.43296,-0.35719 -0.43296,-1.25558 0,-0.63862 0.15154,-0.99581 0.15153,-0.35719 0.50873,-0.51955 0.36801,-0.16236 1.02828,-0.16236 0.31389,0 2.06738,0.0541 v -0.32472 q 0,-0.64944 -0.12989,-0.92004 -0.11906,-0.2706 -0.45461,-0.34637 -0.32472,-0.0758 -1.11487,-0.0758 -0.34637,0 -0.87674,0.0433 -0.51955,0.0325 -0.8118,0.0758 v -0.7685 q 0.85509,-0.15154 2.00244,-0.15154 0.97416,0 1.45041,0.20566 0.48708,0.19483 0.64944,0.64944 0.16236,0.44378 0.16236,1.29888 v 3.45286 h -0.79015 l -0.0433,-0.76851 h -0.0649 q -0.2273,0.51955 -0.73603,0.69274 -0.4979,0.16236 -1.17982,0.16236 z m 0.33555,-0.79015 q 0.5412,0 0.87674,-0.0974 0.34637,-0.0974 0.49791,-0.37884 0.2273,-0.38966 0.2273,-1.0824 v -0.24895 h -1.84008 q -0.45461,0 -0.67109,0.0649 -0.20565,0.065 -0.29225,0.25978 -0.0866,0.18401 -0.0866,0.58449 0,0.38967 0.0974,0.57368 0.0974,0.184 0.35719,0.25977 0.2706,0.065 0.83345,0.065 z"
         style="font-weight:normal;font-size:10.82400036px;text-align:center;writing-mode:lr-tb;direction:ltr;text-anchor:middle"
         id="path2000"
         inkscape:connector-curvature="0" />
      <path
         d="m 144.77474,181.44137 -3.92911,-5.69343 h -0.0433 v 5.69343 h -0.89839 v -7.44692 h 0.95251 l 3.87499,5.56354 h 0.0433 v -5.56354 h 0.88757 v 7.44692 z"
         style="font-weight:normal;font-size:10.82400036px;text-align:center;writing-mode:lr-tb;direction:ltr;text-anchor:middle"
         id="path2002"
         inkscape:connector-curvature="0" />
      <path
         d="m 147.83167,181.44137 v -7.44692 h 0.93087 v 7.44692 z"
         style="font-weight:normal;font-size:10.82400036px;text-align:center;writing-mode:lr-tb;direction:ltr;text-anchor:middle"
         id="path2004"
         inkscape:connector-curvature="0" />
      <path
         d="m 150.9182,181.44137 v -7.44692 h 4.84915 v 0.86592 h -3.91828 v 2.39211 h 3.39873 v 0.86592 h -3.39873 v 2.45705 h 3.91828 v 0.86592 z"
         style="font-weight:normal;font-size:10.82400036px;text-align:center;writing-mode:lr-tb;direction:ltr;text-anchor:middle"
         id="path2006"
         inkscape:connector-curvature="0" />
      <path
         d="m 162.06168,181.44137 -1.15817,-2.92248 h -0.184 -2.33799 v 2.92248 h -0.93086 v -7.44692 h 3.42038 q 0.88757,0 1.34218,0.28143 0.45461,0.28142 0.59532,0.75768 0.14071,0.47625 0.14071,1.22311 0,0.7685 -0.2273,1.34218 -0.22731,0.56284 -0.93087,0.7685 l 1.26641,3.07402 z m -1.5803,-3.7884 q 0.69273,0 1.01745,-0.14072 0.33555,-0.15153 0.42214,-0.43296 0.0974,-0.28142 0.0974,-0.82262 0,-0.55202 -0.0866,-0.83345 -0.0866,-0.28142 -0.40048,-0.42213 -0.30308,-0.14072 -0.97416,-0.14072 h -2.17563 v 2.7926 z"
         style="font-weight:normal;font-size:10.82400036px;text-align:center;writing-mode:lr-tb;direction:ltr;text-anchor:middle"
         id="path2008"
         inkscape:connector-curvature="0" />
      <path
         d="m 170.42474,173.99445 v 4.18889 q 0,1.45042 -0.18401,2.13233 -0.18401,0.67109 -0.7685,0.94169 -0.5845,0.2706 -1.88338,0.2706 -1.29888,0 -1.88337,-0.2706 -0.5845,-0.28143 -0.77933,-0.95251 -0.18401,-0.67109 -0.18401,-2.12151 v -4.18889 h 0.92004 v 4.54608 q 0,0.97416 0.10824,1.38548 0.10824,0.41131 0.4979,0.57367 0.38967,0.16236 1.32053,0.16236 0.93087,0 1.30971,-0.16236 0.38966,-0.16236 0.48708,-0.56285 0.10824,-0.41131 0.10824,-1.3963 v -4.54608 z"
         style="font-weight:normal;font-size:10.82400036px;text-align:center;writing-mode:lr-tb;direction:ltr;text-anchor:middle"
         id="path2010"
         inkscape:connector-curvature="0" />
      <path
         d="m 177.02721,181.38725 q -0.33554,0.0649 -0.84427,0.0974 -0.4979,0.0433 -0.93086,0.0433 -1.34218,0 -1.95915,-0.29225 -0.61696,-0.29225 -0.83344,-1.06075 -0.20566,-0.77933 -0.20566,-2.45705 0,-1.6669 0.20566,-2.44622 0.21648,-0.77933 0.83344,-1.07158 0.61697,-0.29225 1.95915,-0.29225 0.44378,0 0.93086,0.0433 0.48708,0.0433 0.80098,0.11906 v 0.8118 q -0.8118,-0.10824 -1.49371,-0.10824 -1.13652,0 -1.59113,0.17319 -0.44379,0.17318 -0.5845,0.74685 -0.14071,0.57367 -0.14071,2.02409 0,1.45042 0.14071,2.02409 0.14071,0.57367 0.5845,0.74685 0.45461,0.17319 1.59113,0.17319 0.83344,0 1.537,-0.10824 z"
         style="font-weight:normal;font-size:10.82400036px;text-align:center;writing-mode:lr-tb;direction:ltr;text-anchor:middle"
         id="path2012"
         inkscape:connector-curvature="0" />
      <path
         d="m 183.55646,181.44137 v -3.30132 h -3.90747 v 3.30132 h -0.93086 v -7.44692 h 0.93086 v 3.2472 h 3.90747 v -3.2472 h 0.92004 v 7.44692 z"
         style="font-weight:normal;font-size:10.82400036px;text-align:center;writing-mode:lr-tb;direction:ltr;text-anchor:middle"
         id="path2014"
         inkscape:connector-curvature="0" />
      <path
         d="m 189.44928,181.52796 q -1.48289,0 -2.09986,-0.29225 -0.61696,-0.29225 -0.79015,-1.01746 -0.16236,-0.73603 -0.16236,-2.50034 0,-1.76431 0.16236,-2.48952 0.17319,-0.73603 0.79015,-1.02828 0.61697,-0.29225 2.09986,-0.29225 1.47206,0 2.08903,0.29225 0.62779,0.29225 0.79015,1.02828 0.17319,0.72521 0.17319,2.48952 0,1.76431 -0.17319,2.50034 -0.16236,0.72521 -0.79015,1.01746 -0.61697,0.29225 -2.08903,0.29225 z m 0,-0.86592 q 1.10405,0 1.49371,-0.14071 0.38967,-0.14072 0.50873,-0.70356 0.11906,-0.56285 0.11906,-2.09986 0,-1.53701 -0.11906,-2.09986 -0.11906,-0.56284 -0.50873,-0.70356 -0.38966,-0.14071 -1.49371,-0.14071 -1.10405,0 -1.50454,0.14071 -0.38966,0.14072 -0.50872,0.70356 -0.11907,0.56285 -0.11907,2.09986 0,1.53701 0.11907,2.09986 0.11906,0.56284 0.50872,0.70356 0.40049,0.14071 1.50454,0.14071 z"
         style="font-weight:normal;font-size:10.82400036px;text-align:center;writing-mode:lr-tb;direction:ltr;text-anchor:middle"
         id="path2016"
         inkscape:connector-curvature="0" />
      <path
         d="m 201.16896,181.44137 v -5.85579 h -0.0433 l -2.55447,5.85579 h -0.68191 l -2.54364,-5.85579 h -0.0433 v 5.85579 h -0.87674 v -7.44692 h 1.25558 l 2.54364,5.79084 h 0.0541 l 2.54364,-5.79084 h 1.25559 v 7.44692 z"
         style="font-weight:normal;font-size:10.82400036px;text-align:center;writing-mode:lr-tb;direction:ltr;text-anchor:middle"
         id="path2018"
         inkscape:connector-curvature="0" />
      <path
         d="m 207.03828,181.52796 q -1.48289,0 -2.09986,-0.29225 -0.61697,-0.29225 -0.79015,-1.01746 -0.16236,-0.73603 -0.16236,-2.50034 0,-1.76431 0.16236,-2.48952 0.17318,-0.73603 0.79015,-1.02828 0.61697,-0.29225 2.09986,-0.29225 1.47206,0 2.08903,0.29225 0.62779,0.29225 0.79015,1.02828 0.17318,0.72521 0.17318,2.48952 0,1.76431 -0.17318,2.50034 -0.16236,0.72521 -0.79015,1.01746 -0.61697,0.29225 -2.08903,0.29225 z m 0,-0.86592 q 1.10404,0 1.49371,-0.14071 0.38966,-0.14072 0.50873,-0.70356 0.11906,-0.56285 0.11906,-2.09986 0,-1.53701 -0.11906,-2.09986 -0.11907,-0.56284 -0.50873,-0.70356 -0.38967,-0.14071 -1.49371,-0.14071 -1.10405,0 -1.50454,0.14071 -0.38966,0.14072 -0.50873,0.70356 -0.11906,0.56285 -0.11906,2.09986 0,1.53701 0.11906,2.09986 0.11907,0.56284 0.50873,0.70356 0.40049,0.14071 1.50454,0.14071 z"
         style="font-weight:normal;font-size:10.82400036px;text-align:center;writing-mode:lr-tb;direction:ltr;text-anchor:middle"
         id="path2020"
         inkscape:connector-curvature="0" />
      <path
         d="m 214.49331,181.52796 q -0.59532,0 -1.33135,-0.0433 -0.72521,-0.0433 -1.28806,-0.10824 v -0.85509 q 1.40712,0.14071 2.34881,0.14071 0.5845,0 0.92004,-0.0433 0.34637,-0.0541 0.5845,-0.18401 0.21648,-0.12988 0.28142,-0.37884 0.065,-0.25977 0.065,-0.68191 0,-0.50873 -0.0541,-0.71438 -0.0541,-0.21648 -0.25978,-0.3139 -0.19483,-0.0974 -0.68191,-0.14071 l -1.84008,-0.20566 q -0.67109,-0.0758 -1.01746,-0.31389 -0.33554,-0.24895 -0.45461,-0.63862 -0.10824,-0.40049 -0.10824,-1.0391 0,-0.88757 0.30308,-1.34218 0.31389,-0.45461 0.86592,-0.60614 0.56284,-0.15154 1.50453,-0.15154 0.62779,0 1.27723,0.0541 0.64944,0.0541 1.02828,0.12989 v 0.82262 q -0.41131,-0.0649 -1.01745,-0.0974 -0.60615,-0.0433 -1.1257,-0.0433 -0.60614,0 -0.97416,0.0541 -0.36801,0.0541 -0.57367,0.18401 -0.2273,0.12989 -0.29225,0.34637 -0.0649,0.21648 -0.0649,0.61697 0,0.44378 0.0649,0.64944 0.0649,0.19483 0.24895,0.29224 0.18401,0.0866 0.60615,0.12989 l 1.81843,0.20566 q 0.64944,0.0649 1.00663,0.2273 0.35719,0.16236 0.51955,0.5845 0.15154,0.38966 0.15154,1.24476 0,0.98498 -0.30307,1.47206 -0.30307,0.47626 -0.8118,0.61697 -0.50873,0.12989 -1.3963,0.12989 z m -0.53037,-8.17212 v -0.0541 l 0.55202,-1.47207 h 0.95251 v 0.0541 l -0.85509,1.47207 z"
         style="font-weight:normal;font-size:10.82400036px;text-align:center;writing-mode:lr-tb;direction:ltr;text-anchor:middle"
         id="path2022"
         inkscape:connector-curvature="0" />
      <path
         d="m 223.34633,181.38725 q -0.33555,0.0649 -0.84427,0.0974 -0.49791,0.0433 -0.93087,0.0433 -1.34217,0 -1.95914,-0.29225 -0.61697,-0.29225 -0.83345,-1.06075 -0.20566,-0.77933 -0.20566,-2.45705 0,-1.6669 0.20566,-2.44622 0.21648,-0.77933 0.83345,-1.07158 0.61697,-0.29225 1.95914,-0.29225 0.44379,0 0.93087,0.0433 0.48708,0.0433 0.80097,0.11906 v 0.8118 q -0.8118,-0.10824 -1.49371,-0.10824 -1.13652,0 -1.59113,0.17319 -0.44378,0.17318 -0.58449,0.74685 -0.14072,0.57367 -0.14072,2.02409 0,1.45042 0.14072,2.02409 0.14071,0.57367 0.58449,0.74685 0.45461,0.17319 1.59113,0.17319 0.83345,0 1.53701,-0.10824 z"
         style="font-weight:normal;font-size:10.82400036px;text-align:center;writing-mode:lr-tb;direction:ltr;text-anchor:middle"
         id="path2024"
         inkscape:connector-curvature="0" />
      <path
         d="m 225.03724,181.44137 v -7.44692 h 0.93086 v 7.44692 z"
         style="font-weight:normal;font-size:10.82400036px;text-align:center;writing-mode:lr-tb;direction:ltr;text-anchor:middle"
         id="path2026"
         inkscape:connector-curvature="0" />
      <path
         d="m 230.6823,183.18403 v -9.7849 h 0.80097 v 9.7849 z"
         style="font-weight:normal;font-size:10.82400036px;text-align:center;writing-mode:lr-tb;direction:ltr;text-anchor:middle"
         id="path2028"
         inkscape:connector-curvature="0" />
    </g>
    <path
       inkscape:connector-curvature="0"
       id="path996-6-5-5-7-9-5"
       d="m 112.88099,65.478232 h 199.8248"
       style="font-style:normal;font-variant:normal;font-weight:600;font-stretch:normal;font-size:6.31233978px;line-height:1.25;font-family:Saira;-inkscape-font-specification:'Saira Semi-Bold';letter-spacing:0px;word-spacing:0px;opacity:1;fill:none;fill-opacity:1;stroke:#000000;stroke-width:0.62218446;stroke-linecap:butt;stroke-linejoin:miter;stroke-miterlimit:4;stroke-dasharray:none;stroke-opacity:1" />
    <g
       aria-label="województwo ŚLĄSKIE"
       transform="matrix(0.76771725,0,0,0.80159176,105.85964,-69.998626)"
       id="flowRoot4890-3-6-2-2-9-7-9-5-6-6"
       style="font-style:normal;font-variant:normal;font-weight:600;font-stretch:normal;font-size:40px;line-height:1.25;font-family:Saira;-inkscape-font-specification:'Saira Semi-Bold';letter-spacing:0px;word-spacing:0px;writing-mode:lr-tb;direction:ltr;opacity:1;fill:#000000;fill-opacity:1;stroke:none;stroke-width:0.15780801">
      <path
         d="m 79.069434,181.44137 -1.261771,-4.03272 h -0.08659 l -1.23703,4.03272 h -1.571028 l -1.905026,-6.30886 h 1.348362 l 1.335993,4.72546 h 0.09896 l 1.385474,-4.72546 h 1.224659 l 1.397844,4.72546 h 0.09896 l 1.323622,-4.72546 h 1.323622 l -1.917396,6.30886 z"
         style="font-style:normal;font-variant:normal;font-weight:500;font-stretch:normal;font-size:12.37030029px;font-family:Saira;-inkscape-font-specification:'Saira Medium';text-align:center;writing-mode:lr-tb;direction:ltr;text-anchor:middle;fill:#000000"
         id="path2031"
         inkscape:connector-curvature="0" />
      <path
         d="m 86.311664,181.54033 q -1.335992,0 -1.929767,-0.27215 -0.581404,-0.28451 -0.742218,-0.9154 -0.160813,-0.64326 -0.160813,-2.07821 0,-1.42258 0.160813,-2.05347 0.160814,-0.64326 0.742218,-0.9154 0.593775,-0.27215 1.929767,-0.27215 1.335993,0 1.917397,0.27215 0.593774,0.27214 0.754588,0.9154 0.160814,0.63089 0.160814,2.05347 0,1.43495 -0.160814,2.07821 -0.160814,0.63089 -0.754588,0.9154 -0.581404,0.27215 -1.917397,0.27215 z m 0,-1.16281 q 0.779329,0 1.076216,-0.13607 0.296888,-0.14845 0.358739,-0.53193 0.07422,-0.38347 0.07422,-1.43495 0,-1.05148 -0.07422,-1.42258 -0.06185,-0.38348 -0.358739,-0.51956 -0.296887,-0.13607 -1.076216,-0.13607 -0.779329,0 -1.076216,0.13607 -0.296887,0.13608 -0.371109,0.51956 -0.06185,0.3711 -0.06185,1.42258 0,1.05148 0.06185,1.43495 0.07422,0.38348 0.371109,0.53193 0.296887,0.13607 1.076216,0.13607 z"
         style="font-style:normal;font-variant:normal;font-weight:500;font-stretch:normal;font-size:12.37030029px;font-family:Saira;-inkscape-font-specification:'Saira Medium';text-align:center;writing-mode:lr-tb;direction:ltr;text-anchor:middle;fill:#000000"
         id="path2033"
         inkscape:connector-curvature="0" />
      <path
         d="m 90.828949,173.58623 v -1.336 h 1.373104 v 1.336 z m -1.113327,9.26535 q 0.531923,0 0.766959,-0.0619 0.235036,-0.0618 0.296887,-0.19793 0.07422,-0.13607 0.07422,-0.42059 v -7.0387 h 1.311252 v 6.75419 q 0,0.94014 -0.210295,1.36073 -0.210295,0.42059 -0.705107,0.54429 -0.482442,0.12371 -1.533918,0.12371 z"
         style="font-style:normal;font-variant:normal;font-weight:500;font-stretch:normal;font-size:12.37030029px;font-family:Saira;-inkscape-font-specification:'Saira Medium';text-align:center;writing-mode:lr-tb;direction:ltr;text-anchor:middle;fill:#000000"
         id="path2035"
         inkscape:connector-curvature="0" />
      <path
         d="m 99.335078,178.75701 h -4.11931 q 0,0.75459 0.09896,1.07622 0.111332,0.30926 0.494812,0.43296 0.395849,0.1237 1.323622,0.1237 0.81644,0 1.954507,-0.1237 v 1.08858 q -0.40822,0.0866 -1.039105,0.13608 -0.630885,0.0495 -1.22466,0.0495 -1.323622,0 -1.942137,-0.29689 -0.618515,-0.30926 -0.804069,-0.96488 -0.185555,-0.65563 -0.185555,-1.97925 0,-1.26177 0.185555,-1.92977 0.185554,-0.66799 0.791699,-1.00199 0.606144,-0.334 1.867915,-0.334 1.21229,0 1.756583,0.334 0.556663,0.334 0.692737,0.97725 0.148443,0.63089 0.148443,1.95451 z m -2.634874,-2.57302 q -0.667996,0 -0.977254,0.13607 -0.296887,0.12371 -0.395849,0.44533 -0.09896,0.32163 -0.111333,1.03911 h 2.86991 v -0.0247 q 0,-0.70511 -0.123703,-1.03911 -0.123703,-0.334 -0.40822,-0.44533 -0.272147,-0.11133 -0.853551,-0.11133 z"
         style="font-style:normal;font-variant:normal;font-weight:500;font-stretch:normal;font-size:12.37030029px;font-family:Saira;-inkscape-font-specification:'Saira Medium';text-align:center;writing-mode:lr-tb;direction:ltr;text-anchor:middle;fill:#000000"
         id="path2037"
         inkscape:connector-curvature="0" />
      <path
         d="m 106.34691,181.44137 -1.26177,-4.03272 h -0.0866 l -1.23703,4.03272 h -1.57103 l -1.90503,-6.30886 h 1.34837 l 1.33599,4.72546 h 0.099 l 1.38548,-4.72546 h 1.22465 l 1.39785,4.72546 h 0.099 l 1.32362,-4.72546 h 1.32363 l -1.9174,6.30886 z"
         style="font-style:normal;font-variant:normal;font-weight:500;font-stretch:normal;font-size:12.37030029px;font-family:Saira;-inkscape-font-specification:'Saira Medium';text-align:center;writing-mode:lr-tb;direction:ltr;text-anchor:middle;fill:#000000"
         id="path2039"
         inkscape:connector-curvature="0" />
      <path
         d="m 113.70995,181.54033 q -1.336,0 -1.92977,-0.27215 -0.5814,-0.28451 -0.74222,-0.9154 -0.16081,-0.64326 -0.16081,-2.07821 0,-1.42258 0.16081,-2.05347 0.16082,-0.64326 0.74222,-0.9154 0.59377,-0.27215 1.92977,-0.27215 1.33599,0 1.91739,0.27215 0.59378,0.27214 0.75459,0.9154 0.16082,0.63089 0.16082,2.05347 0,1.43495 -0.16082,2.07821 -0.16081,0.63089 -0.75459,0.9154 -0.5814,0.27215 -1.91739,0.27215 z m 0,-1.16281 q 0.77933,0 1.07621,-0.13607 0.29689,-0.14845 0.35874,-0.53193 0.0742,-0.38347 0.0742,-1.43495 0,-1.05148 -0.0742,-1.42258 -0.0619,-0.38348 -0.35874,-0.51956 -0.29688,-0.13607 -1.07621,-0.13607 -0.77933,0 -1.07622,0.13607 -0.29689,0.13608 -0.37111,0.51956 -0.0618,0.3711 -0.0618,1.42258 0,1.05148 0.0618,1.43495 0.0742,0.38348 0.37111,0.53193 0.29689,0.13607 1.07622,0.13607 z m -0.58141,-6.35833 v -0.0619 l 0.59378,-1.7071 h 1.36073 v 0.0619 l -0.98962,1.70711 z"
         style="font-style:normal;font-variant:normal;font-weight:500;font-stretch:normal;font-size:12.37030029px;font-family:Saira;-inkscape-font-specification:'Saira Medium';text-align:center;writing-mode:lr-tb;direction:ltr;text-anchor:middle;fill:#000000"
         id="path2041"
         inkscape:connector-curvature="0" />
      <path
         d="m 120.25596,181.54033 q -0.86592,0 -1.34836,-0.28452 -0.48244,-0.29689 -0.69274,-0.98962 -0.21029,-0.69274 -0.21029,-1.96688 0,-1.27414 0.21029,-1.96688 0.2103,-0.7051 0.68037,-1.00199 0.47007,-0.29689 1.32362,-0.29689 0.72985,0 1.21229,0.18556 0.48244,0.17318 0.74222,0.64325 h 0.0742 v -3.61213 h 1.31125 v 9.19114 h -1.19992 l -0.0495,-0.81644 h -0.0742 q -0.25978,0.53192 -0.77933,0.72984 -0.50718,0.18556 -1.19992,0.18556 z m 0.54429,-1.23703 q 0.53193,0 0.82882,-0.13607 0.30925,-0.13608 0.44533,-0.43296 0.11133,-0.23504 0.13607,-0.56904 0.0371,-0.334 0.0371,-0.89066 0,-0.54429 -0.0371,-0.86592 -0.0247,-0.32163 -0.1237,-0.54429 -0.13608,-0.29689 -0.44533,-0.43297 -0.30926,-0.14844 -0.85356,-0.14844 -0.69273,0 -0.97725,0.13607 -0.28452,0.12371 -0.38348,0.53193 -0.099,0.39585 -0.099,1.33599 0,0.95251 0.099,1.36073 0.099,0.39585 0.38348,0.53193 0.29689,0.1237 0.98962,0.1237 z"
         style="font-style:normal;font-variant:normal;font-weight:500;font-stretch:normal;font-size:12.37030029px;font-family:Saira;-inkscape-font-specification:'Saira Medium';text-align:center;writing-mode:lr-tb;direction:ltr;text-anchor:middle;fill:#000000"
         id="path2043"
         inkscape:connector-curvature="0" />
      <path
         d="m 125.17799,181.44137 v -1.07622 l 3.40183,-4.06983 h -3.25339 v -1.16281 h 4.93575 v 1.08859 l -3.38946,4.05746 h 3.4142 v 1.16281 z"
         style="font-style:normal;font-variant:normal;font-weight:500;font-stretch:normal;font-size:12.37030029px;font-family:Saira;-inkscape-font-specification:'Saira Medium';text-align:center;writing-mode:lr-tb;direction:ltr;text-anchor:middle;fill:#000000"
         id="path2045"
         inkscape:connector-curvature="0" />
      <path
         d="m 132.47182,181.44137 v -5.14605 h -1.26177 v -1.16281 h 1.26177 v -1.8308 h 1.31126 v 1.8308 h 1.47206 v 1.16281 h -1.47206 v 5.14605 z"
         style="font-style:normal;font-variant:normal;font-weight:500;font-stretch:normal;font-size:12.37030029px;font-family:Saira;-inkscape-font-specification:'Saira Medium';text-align:center;writing-mode:lr-tb;direction:ltr;text-anchor:middle;fill:#000000"
         id="path2047"
         inkscape:connector-curvature="0" />
      <path
         d="m 141.95985,181.44137 -1.26178,-4.03272 h -0.0866 l -1.23703,4.03272 h -1.57103 l -1.90502,-6.30886 h 1.34836 l 1.33599,4.72546 h 0.099 l 1.38547,-4.72546 h 1.22466 l 1.39784,4.72546 h 0.099 l 1.32362,-4.72546 h 1.32362 l -1.9174,6.30886 z"
         style="font-style:normal;font-variant:normal;font-weight:500;font-stretch:normal;font-size:12.37030029px;font-family:Saira;-inkscape-font-specification:'Saira Medium';text-align:center;writing-mode:lr-tb;direction:ltr;text-anchor:middle;fill:#000000"
         id="path2049"
         inkscape:connector-curvature="0" />
      <path
         d="m 149.20207,181.54033 q -1.33599,0 -1.92976,-0.27215 -0.58141,-0.28451 -0.74222,-0.9154 -0.16081,-0.64326 -0.16081,-2.07821 0,-1.42258 0.16081,-2.05347 0.16081,-0.64326 0.74222,-0.9154 0.59377,-0.27215 1.92976,-0.27215 1.336,0 1.9174,0.27215 0.59377,0.27214 0.75459,0.9154 0.16081,0.63089 0.16081,2.05347 0,1.43495 -0.16081,2.07821 -0.16082,0.63089 -0.75459,0.9154 -0.5814,0.27215 -1.9174,0.27215 z m 0,-1.16281 q 0.77933,0 1.07622,-0.13607 0.29689,-0.14845 0.35874,-0.53193 0.0742,-0.38347 0.0742,-1.43495 0,-1.05148 -0.0742,-1.42258 -0.0619,-0.38348 -0.35874,-0.51956 -0.29689,-0.13607 -1.07622,-0.13607 -0.77933,0 -1.07621,0.13607 -0.29689,0.13608 -0.37111,0.51956 -0.0618,0.3711 -0.0618,1.42258 0,1.05148 0.0618,1.43495 0.0742,0.38348 0.37111,0.53193 0.29688,0.13607 1.07621,0.13607 z"
         style="font-style:normal;font-variant:normal;font-weight:500;font-stretch:normal;font-size:12.37030029px;font-family:Saira;-inkscape-font-specification:'Saira Medium';text-align:center;writing-mode:lr-tb;direction:ltr;text-anchor:middle;fill:#000000"
         id="path2051"
         inkscape:connector-curvature="0" />
      <path
         d="m 159.78371,181.54033 q -0.7051,0 -1.55865,-0.0495 -0.85356,-0.0495 -1.49681,-0.13608 v -1.22466 q 1.52155,0.14845 2.64724,0.14845 0.668,0 1.03911,-0.0495 0.37111,-0.0619 0.5814,-0.19793 0.19793,-0.1237 0.25978,-0.34637 0.0619,-0.23503 0.0619,-0.65562 0,-0.4577 -0.0619,-0.668 -0.0495,-0.21029 -0.23504,-0.30926 -0.17318,-0.099 -0.59377,-0.13607 l -2.02873,-0.23503 q -0.77933,-0.0866 -1.19992,-0.37111 -0.40822,-0.29689 -0.56903,-0.77933 -0.14845,-0.48244 -0.14845,-1.22466 0,-1.05148 0.37111,-1.5834 0.38348,-0.54429 1.03911,-0.71748 0.65562,-0.17318 1.7071,-0.17318 0.71748,0 1.47206,0.0742 0.75459,0.0619 1.22466,0.16081 v 1.18755 q -0.4577,-0.0742 -1.13806,-0.11133 -0.68037,-0.0495 -1.28652,-0.0495 -0.65562,0 -1.0391,0.0495 -0.38348,0.0495 -0.59377,0.17318 -0.22267,0.12371 -0.28452,0.334 -0.0618,0.19793 -0.0618,0.59378 0,0.44533 0.0618,0.64325 0.0618,0.18556 0.2474,0.27215 0.19793,0.0866 0.63089,0.13607 l 2.0411,0.23504 q 0.64325,0.0618 1.02673,0.25977 0.39585,0.18556 0.59378,0.65563 0.22266,0.49481 0.22266,1.50918 0,1.12569 -0.35873,1.69473 -0.35874,0.55666 -0.96489,0.72985 -0.60614,0.16081 -1.60814,0.16081 z m -0.7051,-9.31484 v -0.0619 l 0.59377,-1.7071 h 1.36073 v 0.0619 l -0.98962,1.7071 z"
         style="font-style:normal;font-variant:normal;font-weight:500;font-stretch:normal;font-size:12.37030029px;font-family:Saira;-inkscape-font-specification:'Saira Medium';text-align:center;writing-mode:lr-tb;direction:ltr;text-anchor:middle;fill:#000000"
         id="path2053"
         inkscape:connector-curvature="0" />
      <path
         d="m 164.60812,181.44137 v -8.51077 h 1.39785 v 7.21189 h 3.78531 v 1.29888 z"
         style="font-style:normal;font-variant:normal;font-weight:500;font-stretch:normal;font-size:12.37030029px;font-family:Saira;-inkscape-font-specification:'Saira Medium';text-align:center;writing-mode:lr-tb;direction:ltr;text-anchor:middle;fill:#000000"
         id="path2055"
         inkscape:connector-curvature="0" />
      <path
         d="m 177.28845,182.55469 q 0,0.4577 0.58141,0.4577 l 0.21029,-0.0124 v 0.82881 q -0.40822,0.0371 -0.59377,0.0371 -0.72985,0 -1.02674,-0.27215 -0.29688,-0.25978 -0.29688,-0.71748 0,-0.34637 0.19792,-0.72985 0.19793,-0.37111 0.53192,-0.71747 l -0.74221,-2.0411 h -3.59976 l -0.72985,2.05347 h -1.41021 l 3.05546,-8.51077 h 1.81844 l 3.05546,8.51077 h -0.334 q -0.27215,0.21029 -0.49481,0.53192 -0.22267,0.32163 -0.22267,0.5814 z m -4.3296,-4.41619 h 2.78332 l -1.36074,-3.79769 h -0.0618 z"
         style="font-style:normal;font-variant:normal;font-weight:500;font-stretch:normal;font-size:12.37030029px;font-family:Saira;-inkscape-font-specification:'Saira Medium';text-align:center;writing-mode:lr-tb;direction:ltr;text-anchor:middle;fill:#000000"
         id="path2057"
         inkscape:connector-curvature="0" />
      <path
         d="m 182.66393,181.54033 q -0.70511,0 -1.55866,-0.0495 -0.85355,-0.0495 -1.4968,-0.13608 v -1.22466 q 1.52154,0.14845 2.64724,0.14845 0.668,0 1.03911,-0.0495 0.37111,-0.0619 0.5814,-0.19793 0.19793,-0.1237 0.25978,-0.34637 0.0618,-0.23503 0.0618,-0.65562 0,-0.4577 -0.0618,-0.668 -0.0495,-0.21029 -0.23504,-0.30926 -0.17318,-0.099 -0.59377,-0.13607 l -2.02873,-0.23503 q -0.77933,-0.0866 -1.19992,-0.37111 -0.40822,-0.29689 -0.56904,-0.77933 -0.14844,-0.48244 -0.14844,-1.22466 0,-1.05148 0.37111,-1.5834 0.38348,-0.54429 1.03911,-0.71748 0.65562,-0.17318 1.7071,-0.17318 0.71747,0 1.47206,0.0742 0.75459,0.0619 1.22466,0.16081 v 1.18755 q -0.4577,-0.0742 -1.13807,-0.11133 -0.68036,-0.0495 -1.28651,-0.0495 -0.65562,0 -1.0391,0.0495 -0.38348,0.0495 -0.59378,0.17318 -0.22266,0.12371 -0.28451,0.334 -0.0619,0.19793 -0.0619,0.59378 0,0.44533 0.0619,0.64325 0.0618,0.18556 0.2474,0.27215 0.19793,0.0866 0.63089,0.13607 l 2.0411,0.23504 q 0.64325,0.0618 1.02673,0.25977 0.39585,0.18556 0.59378,0.65563 0.22266,0.49481 0.22266,1.50918 0,1.12569 -0.35874,1.69473 -0.35873,0.55666 -0.96488,0.72985 -0.60614,0.16081 -1.60814,0.16081 z"
         style="font-style:normal;font-variant:normal;font-weight:500;font-stretch:normal;font-size:12.37030029px;font-family:Saira;-inkscape-font-specification:'Saira Medium';text-align:center;writing-mode:lr-tb;direction:ltr;text-anchor:middle;fill:#000000"
         id="path2059"
         inkscape:connector-curvature="0" />
      <path
         d="m 192.81995,181.44137 -2.73384,-3.69872 h -1.19992 v 3.69872 h -1.39784 v -8.51077 h 1.39784 v 3.55028 h 1.19992 l 2.78332,-3.55028 h 1.54629 l -3.20391,4.09457 3.24102,4.4162 z"
         style="font-style:normal;font-variant:normal;font-weight:500;font-stretch:normal;font-size:12.37030029px;font-family:Saira;-inkscape-font-specification:'Saira Medium';text-align:center;writing-mode:lr-tb;direction:ltr;text-anchor:middle;fill:#000000"
         id="path2061"
         inkscape:connector-curvature="0" />
      <path
         d="m 195.84797,181.44137 v -8.51077 h 1.39784 v 8.51077 z"
         style="font-style:normal;font-variant:normal;font-weight:500;font-stretch:normal;font-size:12.37030029px;font-family:Saira;-inkscape-font-specification:'Saira Medium';text-align:center;writing-mode:lr-tb;direction:ltr;text-anchor:middle;fill:#000000"
         id="path2063"
         inkscape:connector-curvature="0" />
      <path
         d="m 199.5204,181.44137 v -8.51077 h 5.67797 v 1.26177 h -4.28013 v 2.32562 h 3.69872 v 1.26177 h -3.69872 v 2.39984 h 4.28013 v 1.26177 z"
         style="font-style:normal;font-variant:normal;font-weight:500;font-stretch:normal;font-size:12.37030029px;font-family:Saira;-inkscape-font-specification:'Saira Medium';text-align:center;writing-mode:lr-tb;direction:ltr;text-anchor:middle;fill:#000000"
         id="path2065"
         inkscape:connector-curvature="0" />
    </g>
    <path
       inkscape:connector-curvature="0"
       class="fil3"
       d="m 190.90536,-11.378622 c -0.0382,2.0807364 -0.21199,3.4085716 -1.60449,3.3881708 -1.57614,-0.1519848 -1.17133,-2.1760068 -1.17133,-4.2522288 -0.0489,-1.220078 0.0794,-3.571843 0.13597,-4.519797 0.58736,1.924257 1.50354,3.91543 2.63974,5.383855 z m 22.26908,6.599418 c 0.40824,-0.055536 3.16819,-3.5004112 2.16468,-5.640124 0.69507,1.4956592 2.88351,1.8199568 4.00385,1.448024 0.29144,0.840224 1.07608,2.8280048 1.09201,5.0448176 -0.0558,3.5480464 -0.74048,5.0833536 -1.59208,6.884028 -1.35617,2.663576 -4.5561,7.2559654 -5.60838,8.6926454 -1.04773,-1.43668 -4.1558,-5.836291 -5.51197,-8.5044198 -0.85614,-1.800644 -1.5444,-3.5242072 -1.60448,-7.0722536 -0.0153,-2.3086528 0.65197,-4.0446832 1.03639,-5.172952 1.56025,0.6758328 3.02421,-0.2562616 3.81569,-1.3674906 -0.9718,2.3721434 1.80403,5.616289 2.19638,5.6639202 -0.0398,0 -0.0153,0 0.008,0.02368 z m -1.95265,29.218902 c -0.45576,1.707682 -0.69617,3.108068 -0.51588,5.064072 -0.7042,1.856252 -1.62833,3.900694 -3.79297,4.155836 0,0 -0.22002,-2.619371 1.12821,-5.511988 1.03983,-0.727984 2.06828,-1.351632 3.18064,-3.70792 z m 0.0558,-14.8849843 C 209.74567,7.4229464 208.5607,5.63928 207.82136,4.1549696 c -1.66006,0.1281496 -3.2521,7.2162744 -3.2521,7.2162744 1.43558,1.264313 3.00038,3.568447 3.2759,4.791951 0.2563,-0.455835 2.94367,-5.804548 3.43243,-6.6084813 z m 4.07299,14.8849843 c 0.48425,2.107968 0.62821,3.016235 0.44907,4.967718 0.71206,1.860739 1.68726,3.997048 3.83942,4.25219 0,0 0.28036,-2.57174 -1.05568,-5.464354 -1.05224,-0.715526 -1.75189,-0.940038 -3.23281,-3.755554 z m 0.084,-15.1435223 c 1.62038,-2.1363165 2.48446,-3.9086381 3.2997,-5.1400869 1.65666,0.123604 3.2328,7.2117552 3.2328,7.2117552 -1.42084,1.264314 -2.97995,3.573001 -3.2521,4.793079 -0.26394,-0.452436 -2.79622,-6.07667 -3.2804,-6.8647473 z m -2.16694,2.9935493 c 0.25974,-0.363976 1.39926,-1.872107 1.7111,-2.4640136 0,0 -0.38778,6.9282646 0.48078,9.3922816 1.07948,3.076325 4.96774,7.212849 9.20856,6.276232 -0.10848,0.811912 -0.364,1.612449 -1.06816,2.160121 -1.28811,0.887858 -2.84046,0.963839 -4.34404,0.460376 -1.96846,-1.020508 -3.32463,-3.052524 -4.27714,-5.440557 -0.18334,-0.476236 -0.40706,-1.047735 -0.61574,-1.880017 -0.0306,-0.204123 -0.29105,-0.123605 -0.23567,0.05218 0.084,0.815273 0.21199,0.971757 0.41612,1.891391 0.45587,1.980956 0.77562,3.541221 0.86748,4.717094 0.23224,2.983358 -0.63158,6.012056 -2.13519,8.376284 -1.51606,-2.364228 -2.36078,-5.392926 -2.1329,-8.376284 0.084,-1.175873 0.42069,-2.736138 0.86408,-4.717094 0.20856,-0.919634 0.30863,-1.035274 0.40023,-1.867591 0.0603,-0.172343 -0.20703,-0.240372 -0.24828,-0.0317 -0.20703,0.823214 -0.39915,1.359572 -0.57941,1.835808 -0.98089,2.364232 -2.30872,4.420049 -4.27264,5.440553 -1.51155,0.503471 -3.06841,0.427486 -4.35995,-0.460377 -0.69167,-0.547671 -0.93999,-1.348204 -1.06474,-2.160116 4.24087,0.936616 7.92047,-3.275888 9.21651,-6.276236 0.86409,-2.003633 0.44114,-9.2970418 0.44114,-9.2970418 0.30404,0.5851118 1.4559,2.0047898 1.72806,2.3687738 z M 193.6894,24.483904 c -0.0191,0.376466 0.12452,0.924153 0.44794,1.18381 -0.28037,0.0046 -0.88788,-0.348124 -1.07157,-0.576013 -0.17991,-0.107715 -0.43205,-0.704183 -0.46375,-1.123719 -0.0114,-0.02635 -0.0191,-0.06218 -0.0191,-0.1055 0.29374,0.318331 0.6786,0.578714 1.11416,0.598848 -0.003,0.0076 -0.008,0.0149 -0.0114,0.02254 z m -1.04333,-1.028969 c 0.0191,-0.07234 0.0447,-0.148814 0.0749,-0.227423 0.39693,-0.891254 2.34841,-1.40833 3.52876,-1.851705 0.23261,-0.112222 0.51256,-0.144002 0.34033,-0.24041 -1.13276,-0.128112 -2.38008,-0.02712 -3.56051,0.02826 -0.14209,0.01222 -0.30175,-0.0029 -0.4747,0.03705 -0.43583,-0.384881 -0.58174,-0.912328 -0.5558,-1.295482 0.0114,-0.0084 0.0229,-0.01643 0.0344,-0.02521 0.42749,-0.32089 1.03189,-0.268752 1.69517,-0.280058 1.76441,0.01146 4.10931,0.587354 4.60488,0.375321 1.84825,-0.783559 6.37601,-6.90786 6.76046,-7.512234 0.22803,0.219936 1.0239,1.060202 1.06358,1.288148 -1.1237,1.324408 -4.88042,6.032457 -5.10376,6.388507 -0.0382,0.348125 0.95133,0.348125 1.45935,0.44789 0.49663,0.08392 1.15655,0.219937 1.48428,0.767673 0.0859,0.153207 0.14133,0.403407 0.16463,0.635413 -0.45818,0.332311 -0.99029,0.367147 -1.35396,0.26753 -0.0191,-0.04114 -0.0306,-0.07456 -0.039,-0.09446 -0.67926,-0.640657 -1.57618,-0.284603 -2.31212,0.01566 -1.35614,0.580563 -2.31205,1.783627 -2.98786,2.951587 -0.071,0.143313 -0.19977,0.416775 -0.28075,0.695629 -0.5126,0.138043 -0.99059,0.0096 -1.30308,-0.19167 0.008,-0.0817 0.0191,-0.174827 0.0398,-0.271503 0.21199,-1.147523 1.18383,-2.104544 1.95262,-2.976543 -1.07612,-0.06799 -2.44023,0.63275 -3.30883,1.136209 -0.25019,0.169288 -0.52211,0.397616 -0.71012,0.657643 -0.57836,-0.05783 -0.99948,-0.394433 -1.21312,-0.726191 z m -0.37547,-2.097169 c -0.22269,0.254848 -0.26547,0.732651 -0.26967,1.070351 -0.64071,-0.244 -0.88273,-1.615692 -0.29144,-2.217297 0.0607,0.427902 0.22612,0.870059 0.56123,1.146946 z m 4.85132,4.804048 c 0.008,0.398525 0.0898,0.927939 0.37204,1.197729 -0.80852,0.09064 -1.48352,-0.448856 -1.59384,-1.372104 0.377,0.179104 0.81836,0.283152 1.22195,0.174368 z m 7.04778,-3.797245 c -0.008,0.09194 -0.0267,0.157867 -0.055,0.179181 -0.0802,0.452436 -0.71661,1.139605 -1.66798,1.240509 0.22536,-0.146752 0.47681,-0.92879 0.45225,-1.194665 0.42441,0.04862 0.90363,0.0076 1.27069,-0.225017 z m -13.79931,-49.104408 c 4.58792,-0.351563 6.95553,4.872447 3.33606,8.076906 -0.28495,9.4002234 11.07275,8.9715874 12.66815,8.9556978 0.13255,0.2120296 0.30061,0.3923448 0.50004,0.5363656 -0.34034,0.6202528 -0.95592,2.6318304 -1.02391,3.38474 l -0.008,0.3356344 c -0.10772,-0.012608 -0.29602,0.02368 -0.49213,0.02368 -7.85694,0.00802 -14.65705,-3.5276416 -16.96459,-12.2769818 -0.0443,-0.395737 -0.0997,-1.084029 -0.41615,-0.831159 -0.0921,0.07598 -0.0229,0.459254 0.0554,0.819818 -0.11574,1.364126 -0.35599,6.572222 -0.2563,7.9397428 0.0489,0.7120936 0.17685,1.2008232 0.42066,1.5330392 -0.10771,2.259928 -0.0997,2.9311816 -0.67578,3.7555536 -0.1799,0.2596984 0.13942,0.1757808 0.13942,0.1757808 0.7087,-0.6191336 0.75179,-1.6475904 0.82436,-3.6398864 0.36402,0.2245584 0.83231,0.2755504 1.43555,0.1995776 0,0 0.10083,2.6885336 -0.35943,3.9131608 -0.43651,1.0318792 -1.34369,1.6838808 -2.67262,1.8517016 -1.0954,0.088426 -2.09208,-0.9763072 -2.20777,-1.4162752 0.34339,-0.028264 0.58403,-0.1474392 1.1396,-0.7313784 1.18497,-1.052284 0.61233,-10.4445344 0.86065,-11.9447354 -0.92074,1.09197 -1.40381,0.415019 -1.47635,0.280096 0.52387,-0.480777 1.56366,-1.128265 1.44002,-7.149392 -0.003,-1.179261 1.2281,-3.747601 3.73289,-3.791814 z m 45.27203,15.361217 c 0.0382,2.0807364 0.20702,3.4085716 1.5999,3.3881708 1.57959,-0.1519848 1.17588,-2.1760068 1.17588,-4.2522288 0.0603,-1.220078 -0.0714,-3.571843 -0.13597,-4.519797 -0.57948,1.924257 -1.50018,3.91543 -2.63978,5.383855 z m -3.5277,3.28499 c 0.0714,0.9876392 0.12032,1.4445936 0.18335,2.220204 0.0489,0.7438456 0.45248,1.8766288 1.62489,1.8925152 1.62381,-0.2800968 1.63963,-2.0002376 1.61132,-3.5367024 -0.0114,-0.3560688 -0.13941,-2.4402088 -0.20702,-3.4720618 -0.97177,1.175869 -2.08073,2.139713 -3.21242,2.896045 z m -3.48112,1.77684 c 0.0726,0.984244 0.16424,1.9401424 0.19632,2.5286576 0.0726,0.8164232 0.57265,1.9605472 1.89254,1.8040664 0.94002,-0.1996152 1.39246,-1.1758992 1.31198,-2.9164448 -0.084,-1.5795512 -0.16768,-1.9639472 -0.18029,-3.0162304 -1.07608,0.6928072 -2.17935,1.2280152 -3.22036,1.5999512 z m -3.77593,0.9468344 0.008,0.167836 c 0.1123,1.1565872 0.16769,2.6726472 0.37968,3.283832 0.20855,0.4002552 0.60438,1.3448136 1.78027,1.2881184 1.13161,-0.2074848 1.27222,-0.8878632 1.4321,-1.715596 0.0921,-0.8039632 -0.0382,-2.4481544 -0.13597,-3.8644328 -0.21658,0.075976 -0.41161,0.1360944 -0.60779,0.1837256 -0.98876,0.295948 -1.95601,0.5045816 -2.85635,0.6565472 z m -4.13311,0.2766584 c 0.076,1.140736 0.23567,2.6443016 0.52043,3.4686656 0.21542,0.4320312 0.55109,1.3675248 1.61129,1.3675248 0.90831,-0.06352 1.42424,-0.7552128 1.70089,-1.728116 0.16768,-0.5873584 0.0398,-1.983232 -0.0191,-3.3473272 -1.63169,0.2312808 -2.99921,0.2676064 -3.81562,0.2392256 z m 15.453,-21.6465478 c -4.57987,-0.351562 -6.95661,4.872451 -3.33596,8.076907 0.28037,9.4002224 -10.7802,9.0158224 -12.66024,8.9557008 -0.14056,0.2120296 -0.30863,0.3923408 -0.51248,0.5363656 0.34376,0.6202528 0.95583,2.6318304 1.0239,3.3847368 l 0.0153,0.3356336 c 0.11574,-0.012608 0.28838,0.02368 0.49209,0.02368 7.85576,0.00802 14.66045,-3.5276424 16.96799,-12.2769818 0.0443,-0.395737 0.10046,-1.084029 0.41279,-0.831164 0.0875,0.07598 0.0229,0.459259 -0.0569,0.819823 0.12452,1.364122 0.36058,6.572218 0.25287,7.9397388 -0.0443,0.7120928 -0.17228,1.2008232 -0.41616,1.5330384 0.12032,2.2599288 0.10389,2.9311816 0.67585,3.7555536 0.18029,0.2596992 -0.14438,0.1757816 -0.14438,0.1757816 -0.70412,-0.6191336 -0.74839,-1.6475904 -0.82776,-3.6398832 -0.35255,0.2245584 -0.81982,0.2755512 -1.42875,0.1995776 0,0 -0.10313,2.6885336 0.356,3.9131608 0.43995,1.0318792 1.34822,1.6838808 2.67605,1.8516984 1.09647,0.088425 2.1046,-0.9763032 2.22817,-1.416272 -0.36402,-0.028264 -0.61118,-0.1474384 -1.16798,-0.7313776 -1.17588,-1.052284 -0.5998,-10.4445354 -0.85156,-11.9447364 0.91619,1.091975 1.40836,0.415019 1.46844,0.280096 -0.52047,-0.480777 -1.55686,-1.128264 -1.43669,-7.149388 0.008,-1.179264 -1.23257,-3.747604 -3.72831,-3.791813 z m -0.56467,21.2734958 c -0.0882,1.1157744 -0.86863,1.7246864 -1.74849,1.7677728 0.46833,9.8208824 1.34024,10.2053088 2.18848,11.488904 0.25973,0.2766584 -0.076,0.1882331 -0.144,0.09637 -0.54881,-0.5397534 -1.98436,-1.2926862 -2.2962,-11.617035 -0.47172,-0.087318 -1.06022,-0.4116224 -1.236,-0.971784 0.0114,0.4116264 -0.076,1.9435416 -0.49212,2.2803368 0.2391,2.7917104 0.3323,4.7681168 0.45583,5.8476272 0.34377,2.8121184 1.26775,5.8442351 3.97215,6.480351 0.9763,0.2120294 2.83595,-0.6871428 3.07182,-1.6317005 -0.93208,-0.1961781 -2.24406,-0.9638393 -2.93122,-4.1286129 -0.42864,-2.0115776 -0.7563,-7.8875584 -0.84021,-9.6122448 z m -9.34917,5.1253168 c 0,0 0.44793,6.2082264 0.78808,8.3887482 0.56809,3.7283272 1.09196,5.4201492 2.20432,6.9679582 1.45144,1.751913 4.0084,2.68853 6.08012,0.756328 -0.88789,-0.04427 -1.6079,-0.940043 -1.75194,-1.224657 -1.15205,-1.875503 -2.1125,-5.0198636 -2.3767,-7.4804814 -0.18335,-1.1792608 -0.81528,-7.6721024 -0.73591,-8.7085 -0.93207,-0.06008 -1.46388,-0.555616 -1.63966,-1.13506 -0.0191,0.4955176 -0.0997,0.9910392 -0.30061,1.3992664 0.56019,10.5885552 1.69979,14.020927 3.16478,15.905497 0.27196,0.283495 0.0478,0.335634 -0.17226,0.196178 -0.81195,-0.900319 -2.74069,-3.128475 -3.27254,-15.6254278 -0.4116,0.5046128 -1.0443,0.7801328 -1.98776,0.5601584 z m -1.558,-1.048892 c -0.26738,0.7518176 -0.80736,1.3312344 -1.5716,1.4514504 0.22001,6.888544 0.92752,7.8489912 0.92752,7.8489912 0,0 -0.0638,0.1678362 -0.21542,0.023682 -0.0806,-0.1882331 -0.74048,0.1882332 -1.00014,-7.8365232 -0.64862,0.012608 -1.33238,-0.4161448 -1.61248,-0.9921624 0.076,0.6882624 0.008,6.6844624 0.79602,8.4250118 0.90038,2.1952847 3.66486,2.5921436 4.03223,2.5717396 -0.34797,-0.3560694 -0.67241,-1.2677092 -0.90369,-3.6886362 -0.26394,-3.464148 -0.516,-7.3920408 -0.45244,-7.8036632 z m 8.16584,25.8519924 c 0.0229,0.385825 -0.12682,0.906782 -0.43705,1.165954 0.26432,0.01146 0.88333,-0.348125 1.07157,-0.576014 0.15775,-0.100228 0.40782,-0.650214 0.4514,-1.073329 -0.29716,0.282998 -0.67027,0.494638 -1.08592,0.483389 z m 1.07756,-0.919787 c -0.0229,-0.103436 -0.0618,-0.218828 -0.1142,-0.338575 -0.38121,-0.900322 -2.337,-1.428738 -3.52877,-1.872106 -0.22001,-0.09981 -0.49552,-0.12815 -0.32429,-0.227882 1.12035,-0.148546 2.36422,-0.03629 3.55256,0.0317 0.17226,0 0.36516,-0.02292 0.57933,0.0542 0.41382,-0.372723 0.56057,-0.87473 0.54525,-1.250944 -0.0344,-0.03209 -0.0726,-0.06509 -0.11649,-0.09939 -0.43205,-0.32429 -1.03192,-0.272151 -1.69979,-0.272151 -1.78024,0.0046 -4.11276,0.576055 -4.60484,0.368521 -1.85166,-0.776737 -6.37602,-6.904467 -6.77632,-7.513383 -0.21543,0.232503 -1.0194,1.064777 -1.04777,1.292693 1.1124,1.3278 4.86793,6.027912 5.09245,6.376048 0.0306,0.348124 -0.94452,0.356069 -1.45254,0.463741 -0.49549,0.08396 -1.16794,0.224559 -1.48768,0.760882 -0.0821,0.149845 -0.13293,0.387429 -0.15508,0.611219 0.42769,0.352135 0.93609,0.424453 1.31477,0.358514 0.0306,-0.06986 0.0611,-0.128303 0.0798,-0.154467 0.66106,-0.652002 1.57614,-0.295948 2.30073,0.01261 1.35163,0.579416 2.31541,1.780236 2.9845,2.948191 0.0898,0.145033 0.2181,0.427848 0.29526,0.711305 0.49804,0.160923 0.9702,0.06341 1.29876,-0.116996 0.003,-0.0953 -0.003,-0.214856 -0.0306,-0.350531 -0.22803,-1.167954 -1.19968,-2.107967 -1.95597,-2.987885 1.07153,-0.07261 2.4198,0.639508 3.29629,1.139579 0.267,0.174826 0.56413,0.425087 0.74584,0.698514 0.55584,-0.03743 0.97283,-0.331356 1.20873,-0.643427 z m 0.39587,-2.152355 c 0.17074,0.269439 0.20703,0.699182 0.21313,1.005294 0.61409,-0.223679 0.85783,-1.47522 0.37892,-2.122222 -0.0703,0.425152 -0.24675,0.855755 -0.59224,1.116928 z m -4.89911,4.744294 c -0.0191,0.412649 -0.0963,0.913114 -0.36324,1.189024 0.76985,0.08797 1.43298,-0.414354 1.57068,-1.289539 -0.38158,0.161763 -0.81634,0.239035 -1.20744,0.100534 z m -7.04292,-3.827555 c 0.008,0.102253 0.0267,0.175476 0.0554,0.196293 0.084,0.452436 0.72,1.152065 1.668,1.23596 -0.20969,-0.130289 -0.45709,-0.847321 -0.46652,-1.139907 -0.43262,0.03438 -0.90748,-0.02903 -1.25676,-0.292357 z m -10.81,-41.943744 c -1.12372,-1.040943 -2.51953,-1.660077 -4.21592,-1.108983 -0.50344,0.24041 -2.3313,0.684901 -3.57636,0.11226 -0.73933,-0.427509 -0.90373,-0.788074 -0.76309,-1.188359 0.51585,0.580566 0.82317,0.828886 2.03191,0.784681 1.04774,-0.06466 2.29623,-0.903752 3.67166,-0.756328 1.09651,0.104315 1.92881,0.531808 2.50031,1.047731 0.19633,0.244917 0.43999,1.017146 0.35141,1.108986 z m -0.94568,-5.746727 c 0.065,0.256262 0.12452,0.56811 0.17227,1.188367 0.13598,1.008044 0.33231,1.519452 0.78357,2.139709 1.00804,1.156587 1.50472,2.503699 0.90828,3.392681 -0.74388,0.815304 -1.36748,0.455832 -1.9844,-0.151947 -1.11576,-1.2768 -2.65219,-1.033001 -3.80428,-0.73705 0.36058,-0.91169 1.34824,-1.267736 2.75659,-0.92303 0.47963,0.163291 1.21217,0.411627 2.04787,1.160018 0.13254,0.09977 0.35599,0.06348 0.39228,-0.12815 0.0523,-0.208592 -0.0191,-0.648603 -0.0963,-0.892408 -0.41959,-1.275654 -1.44803,-2.327938 -2.7157,-2.900563 -1.90048,-0.883309 -3.19657,0.02025 -3.53674,0.316383 0.0153,-0.2597 0.065,-2.408445 1.15212,-3.14776 1.29261,-0.848173 3.76459,0.655396 3.92444,0.683743 z m 7.39774,1.962824 c 0.75175,0.615711 1.04434,1.68728 2.31655,1.815411 -0.44449,1.099919 -1.5648,1.128264 -1.89593,0.904867 -0.0344,0.14744 -0.065,0.348125 -0.12796,0.607797 0.2754,0.795992 1.27566,0.688296 1.57615,0.688296 -0.66905,1.203066 -1.89249,0.951346 -2.10911,0.739289 -0.1757,0.35607 -0.49552,0.832314 -0.83119,1.44008 -0.93204,1.944691 -0.43991,3.812249 0.49216,4.952977 0.68716,0.811877 2.22362,1.847153 2.71116,1.895906 -0.43189,0.7188274 -0.70568,1.039645 -1.55559,1.154617 -1.06397,0.14404 -2.53233,-0.1786456 -3.36448,-1.963098 -0.0478,-0.163253 -0.33231,-0.172306 -0.30405,0.0317 0.20855,0.820976 0.35256,2.0762212 0.0382,2.9005932 -0.39236,1.2518496 -1.72019,2.979936 -1.84375,3.0286904 -0.15164,-0.072576 -1.54105,-2.036528 -1.90498,-3.3688848 -0.19977,-0.8719688 0.0443,-2.2598988 0.33651,-2.8801508 0.0267,-0.14744 -0.20435,-0.227882 -0.31627,-0.04763 -0.97627,1.85965 -2.49577,2.720278 -4.22043,2.0036364 -0.40366,-0.1915944 -0.60442,-0.7075484 -0.61577,-0.8073324 2.29165,-0.264207 4.8158,-4.900831 4.11161,-8.048588 0.63616,0.576048 1.10446,0.631597 1.66915,0.371921 0.50008,-0.243771 0.8754,-0.879917 0.88334,-1.296093 0.0153,-0.615704 -0.0443,-1.204215 -0.55565,-1.979802 -0.0306,-0.100916 -0.85266,-1.036425 -1.07604,-1.677086 -0.076,-0.247171 -0.42864,-1.220074 -0.34033,-1.691795 0.356,0.439945 0.66448,0.548825 0.80056,0.620256 -0.13597,0.447887 -0.0806,1.096493 0.0794,1.452539 0.356,0.727983 0.69961,0.88334 1.06817,0.979699 1.10446,0.22792 1.84031,-0.295947 2.21227,-0.740443 0.084,-0.06008 0.43204,0.280097 0.72001,0.500068 0.12032,0.01261 0.33231,0.01566 0.30405,-0.107715 -0.13942,-0.4082 -1.04434,-0.976303 -1.3357,-1.128237 -0.6328,-0.251755 -3.1285,-1.440076 -3.54018,-1.767804 -0.35943,-0.349499 -0.17113,-0.74888 0.199,-0.943805 0.69014,-0.363708 1.71037,0.04378 2.40097,0.211266 1.18719,0.396859 3.19996,1.444628 4.01981,2.148776 z m -23.60374,15.3272336 c -0.0794,0.9876432 -0.13598,1.4445936 -0.1948,2.220212 -0.0489,0.7438376 -0.45244,1.8766248 -1.62833,1.8925104 -1.61583,-0.280096 -1.63283,-2.0002368 -1.60449,-3.5367016 0.0153,-0.3560696 0.14057,-2.4402128 0.20855,-3.4720614 0.97513,1.1758686 2.07167,2.1397118 3.21918,2.8960406 z m 3.47208,1.776844 c -0.0684,0.984248 -0.16769,1.9401464 -0.19634,2.5286536 -0.0714,0.8164232 -0.57154,1.9605504 -1.89142,1.8040664 -0.94002,-0.1996152 -1.38452,-1.1758992 -1.3085,-2.9164448 0.0886,-1.5795512 0.1757,-1.9639504 0.18334,-3.0162304 1.08062,0.6928112 2.16464,1.2280184 3.21242,1.5999552 z m 3.77138,0.9468304 -0.0153,0.167836 c -0.10771,1.1565832 -0.15202,2.672644 -0.37203,3.283832 -0.20703,0.4002592 -0.60783,1.3448168 -1.77577,1.2881144 -1.13276,-0.2074848 -1.2802,-0.8878552 -1.43665,-1.715592 -0.0951,-0.8039672 0.0413,-2.4481584 0.15164,-3.8644328 0.20435,0.075976 0.40027,0.136056 0.60439,0.1836872 0.9763,0.295948 1.94807,0.5045896 2.84041,0.6565472 z m 4.1309,0.2766584 c -0.0603,1.140724 -0.23263,2.6442904 -0.52048,3.4686624 -0.20702,0.4320304 -0.54312,1.3675208 -1.60788,1.3675208 -0.90034,-0.06352 -1.41966,-0.7552096 -1.69976,-1.7281168 -0.17226,-0.5873576 -0.0382,-1.983228 0.0191,-3.3473224 1.63169,0.2313184 2.99924,0.2676056 3.80768,0.2392256 z M 190.9352,-5.4664848 c 0.0921,1.1157744 0.85951,1.7246904 1.74403,1.76778 -0.46043,9.8208792 -1.3438,10.2053056 -2.18401,11.4889005 -0.25974,0.2766585 0.0794,0.1882332 0.13598,0.09637 0.56015,-0.5397571 1.98775,-1.2926939 2.30753,-11.6170387 0.4649,-0.087279 1.05679,-0.4116224 1.23254,-0.971788 -0.0191,0.4116264 0.076,1.9435416 0.49552,2.2803368 -0.2437,2.7917144 -0.33575,4.7681208 -0.4592,5.8476352 -0.35599,2.8121144 -1.26886,5.8442348 -3.97215,6.4803469 -0.9888,0.2120301 -2.83705,-0.6871428 -3.06834,-1.6317043 0.93544,-0.1961781 2.24398,-0.9638394 2.92774,-4.128605 0.4241,-2.0115816 0.75637,-7.8875624 0.84025,-9.6122528 z m 9.35147,5.1253168 c 0,0 -0.4411,6.2082264 -0.78808,8.3887519 -0.56015,3.7283231 -1.10109,5.4201491 -2.20093,6.9679501 -1.46396,1.751921 -4.01638,2.688534 -6.08805,0.756333 0.88788,-0.04427 1.60449,-0.940039 1.75643,-1.224654 1.15205,-1.875499 2.11136,-5.0198635 2.37217,-7.4804778 0.18335,-1.179272 0.81187,-7.6721096 0.74388,-8.7085072 0.92413,-0.06008 1.45139,-0.5556128 1.63619,-1.135056 0.003,0.4955136 0.0997,0.9910352 0.29603,1.3992664 -0.54885,10.5885511 -1.7009,14.0209266 -3.16028,15.9054886 -0.27196,0.283496 -0.0443,0.335634 0.16348,0.196178 0.81641,-0.900318 2.75658,-3.128471 3.28045,-15.6254274 0.4003,0.5046168 1.03982,0.7801328 1.98886,0.5601624 z m 1.5648,-1.048888 c 0.26279,0.7518136 0.80733,1.3312264 1.56705,1.4514464 -0.20702,6.8885472 -0.92302,7.8489911 -0.92302,7.8489911 0,0 0.0684,0.1678362 0.21199,0.023682 0.0794,-0.1882331 0.74384,0.1882332 0.999,-7.8365351 0.65202,0.012608 1.32898,-0.4161408 1.61698,-0.9921616 -0.0806,0.6882656 -0.0153,6.6844664 -0.79602,8.4250114 -0.90488,2.1952885 -3.67276,2.5921478 -4.02425,2.5717428 0.34033,-0.3560687 0.66787,-1.2677124 0.89579,-3.6886398 0.25973,-3.4641472 0.52047,-7.3920368 0.45244,-7.8036632 z"
       id="path18-4"
       style="clip-rule:evenodd;fill:#2a2a29;fill-opacity:1;fill-rule:nonzero;stroke-width:0.30319959;image-rendering:optimizeQuality;shape-rendering:geometricPrecision;text-rendering:geometricPrecision" />
  </g>
</svg>
